<svg xmlns="http://www.w3.org/2000/svg" id="Layer_1" height="512" viewBox="0 0 128 128" width="512"><g><path d="m91.9 95.8c1 0 1.8-.8 1.8-1.8v-8.2c0-1-.8-1.8-1.8-1.8s-1.8.8-1.8 1.8v8.2c.1 1.1.8 1.8 1.8 1.8z"></path><path d="m83.2 95.8c1 0 1.8-.8 1.8-1.8v-8.2c0-1-.8-1.8-1.8-1.8s-1.8.8-1.8 1.8v8.2c0 1.1.8 1.8 1.8 1.8z"></path><path d="m116.7 105.9h-14.3c0-.6 0-3.9 0-7 4.8-1.8 8.3-6.1 9.2-11.2 1.2-7.4-4.3-10.5-9.2-8.9v-.8c.6-.7 1-1.5 1.2-2.4.3-1.7-.2-3.4-1.4-4.6-.3-2.8-2.6-4.9-5.4-5-1.2-1.7-3.4-2.4-5.4-1.8-2.3-1.9-5.6-1.9-7.8 0-2-.6-4.2.1-5.4 1.8-2.8.1-5.1 2.2-5.4 5-1.2 1.2-1.7 2.9-1.4 4.6.2.9.6 1.7 1.2 2.4v27.9h-13.4c-1.8-3.6-3.1-7.4-3.9-11.3-1.6-7.2-2.7-18.9 1.1-33.8 1.5-5.7 2.5-11.6 3.1-17.5h5.2c2.1 0 3.9-1.4 4.5-3.4h7.6c3.5 1.8 5.6 5.5 5.5 9.5 0 1 .8 1.8 1.8 1.8h6.9c1 0 1.7-.8 1.8-1.8.1-3.3-.6-6.5-2-9.5h6.5c1 0 1.8-.8 1.8-1.8v-6.9c0-1-.8-1.8-1.8-1.8h-16.5l2.3-3 .6.5c.6.5 1.5.5 2.1 0 1.4-1 13.2-9.7 13.1-17.8 0-3.1-3-5.4-6-4.6-7.9 2-13.3 15.7-13.8 17.3-.3.7 0 1.5.6 2l.6.5-3.9 5.1h-7.1c-.6-2-2.4-3.4-4.5-3.4h-5.5c-.9-5.8-2.8-10.6-5.6-14.2-3.8-4.9-9-7.3-15.6-7.3s-11.8 2.5-15.5 7.4c-7.3 9.4-8.3 27.2-2.8 48.9 6.4 25.1-.9 41.4-2.8 45.1h-5.7c-3.7 0-6.7 3-6.8 6.8v9c0 1 .8 1.7 1.7 1.8h115.4c1 0 1.7-.8 1.8-1.7v-9c0-3.8-3-6.9-6.7-6.9zm-22.9-97.8c.8-.2 1.6.4 1.6 1.3 0 4.8-6.9 11.2-10.6 14.1l-1.9-1.5c1.8-4.4 6.2-12.7 10.9-13.9zm-17.6 71.6c.8 0 1.6-.1 2.3-.4 1.6 1 3.7 1 5.4.1 2.2 1.7 5.3 1.7 7.5 0 1.7 1 3.7 1 5.4-.1.7.3 1.5.5 2.3.4v17.4c-.4.4-1.4 2.3-3.7 2.3h-15.5c-2.3 0-3.2-1.9-3.7-2.3zm30.5 2.6c2.8 1.6 2 9.6-4.3 12.7v-12.4c1.3-.8 2.9-.9 4.3-.3zm-31.2-9c.9-.6.8-1.3.8-1.7 0-1.4 1.3-2.4 2.6-2.1.9.2 1.8-.3 2.1-1.2s1.3-1.2 2-.6c.8.6 1.9.4 2.5-.4 1-1.5 3.1-1.5 4.1 0 .6.8 1.7 1 2.5.4.7-.5 1.8-.2 2 .6.3.9 1.2 1.4 2.1 1.2 1.1-.3 2.3.4 2.5 1.5.2.6-.2 1.5.8 2.2.5.4.8 1 .7 1.7-.3 1.2-1.7 1.6-2.6.8-.7-.7-1.9-.6-2.5.2-.7.8-1.9.7-2.5-.1-.7-1.1-2.3-1-2.9.1-1 1.6-3.3 1.6-4.3 0-.7-1.1-2.2-1.1-2.9-.1-.6.8-1.8.9-2.5.1-.6-.8-1.8-.8-2.5-.2-.9.8-2.3.3-2.6-.8-.2-.6.1-1.2.6-1.6zm.7 32.4v-3.9c1.1.7 2.4 1 3.7 1h15.3c1.3 0 2.6-.3 3.7-1v3.9c0 .1-.1.3-.3.3h-22.2c-.1-.1-.2-.2-.2-.3zm19.3-69.3h-8c-1.6 0-2.4 2-1.2 3.1 0 0 2.4 2.3 2.9 8.2h-3.4c-.4-4.9-3.4-9.1-7.9-11.1-.2-.1-.4-.1-.6-.1h-7.8v-3.5h26zm-30.8-6.8c.7 0 1.3.6 1.3 1.3v7.7c0 .7-.6 1.2-1.3 1.3h-4.9c.2-3.5.2-6.9-.1-10.3zm-41.5 30.3c-5.2-20.3-4.4-37.4 2.1-45.9 3-3.9 7.8-6.2 12.8-6 5-.2 9.8 2 12.8 6 6.5 8.4 7.3 25.6 2.2 45.9-6.1 23.8-.5 39.9 2.3 46h-34.5c2.8-6 8.3-22.2 2.3-46zm96.7 60h-111.8v-7.3c0-1.8 1.5-3.2 3.3-3.3h105.4c1.8 0 3.2 1.5 3.3 3.3v7.3z"></path><path d="m38.1 23.5c-6.2 0-11.2 5-11.2 11.2s5 11.2 11.2 11.2 11.2-5 11.2-11.2c0-6.2-5-11.2-11.2-11.2zm0 18.9c-4.3 0-7.7-3.5-7.7-7.7s3.5-7.7 7.7-7.7 7.7 3.5 7.7 7.7c0 4.3-3.4 7.7-7.7 7.7z"></path></g></svg>