<svg xmlns="http://www.w3.org/2000/svg" width="512" height="512" viewBox="0 0 512 512"><g><path d="M288,240a8,8,0,0,0-8,8v64a8,8,0,0,0,16,0V248A8,8,0,0,0,288,240Z"></path><path d="M256,240a8,8,0,0,0-8,8v64a8,8,0,0,0,16,0V248A8,8,0,0,0,256,240Z"></path><path d="M320,240a8,8,0,0,0-8,8v64a8,8,0,0,0,16,0V248A8,8,0,0,0,320,240Z"></path><path d="M296,48a207.747,207.747,0,0,0-163.84,80H72V16a8,8,0,0,0-8-8H16a8,8,0,0,0-8,8V496a8,8,0,0,0,8,8H64a8,8,0,0,0,8-8V384h60.16A207.747,207.747,0,0,0,296,464c114.69,0,208-93.31,208-208S410.69,48,296,48ZM56,488H24V24H56ZM72,144h48.8q-4.995,7.77-9.28,16H72Zm0,32h32.01a207.88,207.88,0,0,0,0,160H72Zm0,192V352h39.52q4.305,8.22,9.28,16Zm224,80c-105.87,0-192-86.13-192-192S190.13,64,296,64s192,86.13,192,192S401.87,448,296,448Z"></path><path d="M388,216H368v-8h-.03a40,40,0,0,0-29.19-71.66,56.034,56.034,0,0,0-104.91,9.22A31.988,31.988,0,0,0,208,203.69V356a20.02,20.02,0,0,0,20,20H348a20.02,20.02,0,0,0,20-20V344h20a28.031,28.031,0,0,0,28-28V244A28.031,28.031,0,0,0,388,216ZM352,356a4,4,0,0,1-4,4H228a4,4,0,0,1-4-4V208a32.089,32.089,0,0,0,23.06-9.83,55.936,55.936,0,0,0,71.53,8.73A39.866,39.866,0,0,0,344,216a40.571,40.571,0,0,0,8-.8Zm-8-156a23.949,23.949,0,0,1-18.52-8.73,7.992,7.992,0,0,0-5.49-2.88c-.23-.02-.45-.03-.68-.03a8.03,8.03,0,0,0-5.22,1.94,39.973,39.973,0,0,1-60.63-10.13,8,8,0,0,0-14.42,1.3,16,16,0,1,1-4.34-17.37,8,8,0,0,0,13.34-5.64,40,40,0,0,1,78.14-10.41,8,8,0,0,0,10.18,5.2A24,24,0,1,1,344,200Zm56,116a12.01,12.01,0,0,1-12,12H368V232h20a12.01,12.01,0,0,1,12,12Z"></path></g></svg>