<svg xmlns="http://www.w3.org/2000/svg" id="Icons" viewBox="0 0 60 60" width="512" height="512"><path d="M59.044,44.44a4.967,4.967,0,0,0,.894-3.72L58.223,29.854A5,5,0,0,0,52.5,25.7l-2.968.468a1.97,1.97,0,0,0-.79-1.3,2.04,2.04,0,0,0-.262-.154,3.985,3.985,0,0,0-3.5-5.877h-.089a4.092,4.092,0,0,0-1.678.405,3.947,3.947,0,0,0-2.95-.716,3.261,3.261,0,0,0-.357.066A3.92,3.92,0,0,0,37.122,18a3.844,3.844,0,0,0-1.528.58,4.91,4.91,0,0,0-2.817-.835c-.021-.007-.039-.018-.06-.025a4,4,0,0,0-1.718-.2,4.058,4.058,0,0,0-2.576-1.7c-.107-.018-.211-.033-.315-.044a3.954,3.954,0,0,0-2.4-1.5,3.812,3.812,0,0,0-1.647.015,5.066,5.066,0,0,0-3.089-1.969,4.992,4.992,0,0,0-5.085,2.11,3.983,3.983,0,0,0-3.764,5.742,1.993,1.993,0,0,0-1.105,1.414h0L8.07,21.014A5,5,0,0,0,2.2,24.962l-2.11,10.8a5.007,5.007,0,0,0,3.948,5.867l2.943.576L6.6,44.164A4,4,0,0,0,9.76,48.856l15.7,3.071a3.955,3.955,0,0,0,.768.074,4,4,0,0,0,2.895-1.257l.3,1.884A3.99,3.99,0,0,0,33.357,56a4.165,4.165,0,0,0,.638-.05l15.8-2.491a4,4,0,0,0,3.331-4.573l-.313-1.98,2.964-.468A4.964,4.964,0,0,0,59.044,44.44ZM50.473,32.089l1.979-.312,1.4,8.891-1.977.312ZM35.6,20.87a1,1,0,0,0,.709-.3,1.986,1.986,0,0,1,1.126-.591,1.932,1.932,0,0,1,1.614.46,1,1,0,0,0,1.008.192,2.308,2.308,0,0,1,.5-.132,2.005,2.005,0,0,1,1.819.653,1,1,0,0,0,1.372.106,1.97,1.97,0,0,1,1.2-.427h.042a2,2,0,0,1,.333,3.977s-.044.007-.043.011a1.977,1.977,0,0,0-1.289.777,2,2,0,0,0-.374,1.5l.94,5.929a1,1,0,1,1-1.974.31L41.817,28.5a3.04,3.04,0,0,0-2.941-2.631h-.049a2.985,2.985,0,0,0-2.955,3.46l.151.993a1,1,0,0,1-.837,1.141,1.026,1.026,0,0,1-1.138-.827l-.154-.991.675-3.453a1.988,1.988,0,0,0-.3-1.5,2.1,2.1,0,0,0-.19-.229,4.011,4.011,0,0,0,1.336-2.971,3.839,3.839,0,0,0-.057-.671A.944.944,0,0,0,35.6,20.87ZM13.743,18.048a2.02,2.02,0,0,1,2.317-1.586,1.014,1.014,0,0,0,.683.007,1,1,0,0,0,.573-.519,2.986,2.986,0,0,1,3.268-1.664,3.019,3.019,0,0,1,2.133,1.647,1,1,0,0,0,1.351.467,1.882,1.882,0,0,1,1.249-.161,1.951,1.951,0,0,1,1.353.988.989.989,0,0,0,.929.528,2.214,2.214,0,0,1,.454.031,2.034,2.034,0,0,1,1.491,1.233,1,1,0,0,0,1.233.579,2.021,2.021,0,0,1,1.3.017,2,2,0,0,1,1.335,1.865,2.032,2.032,0,0,1-2.385,1.986,2.029,2.029,0,0,0-2.346,1.579l-1.15,5.891a1.015,1.015,0,0,1-1.17.79,1.031,1.031,0,0,1-.8-1.177l.941-4.8a3.092,3.092,0,0,0-1.858-3.485,3.036,3.036,0,0,0-4,2.235l-.188.971a1,1,0,1,1-1.97-.381l.38-1.952a2.011,2.011,0,0,0-1.58-2.36l-1.967-.382A2.054,2.054,0,0,1,13.743,18.048ZM8.137,36.311l-1.963-.383L7.9,27.1l1.963.383ZM4.426,39.662a3,3,0,0,1-2.369-3.521l2.11-10.795a3,3,0,0,1,3.521-2.369l2.944.575-.384,1.963-1.964-.383A2,2,0,0,0,5.938,26.71L4.211,35.544a2,2,0,0,0,1.58,2.347l1.962.383-.384,1.964Zm21.421,10.3-15.7-3.07a2,2,0,0,1-1.58-2.346l4.415-22.575,3.921.772L16.521,24.7a3,3,0,1,0,5.892,1.158l.19-.979a1.013,1.013,0,0,1,1.336-.743,1.074,1.074,0,0,1,.6,1.23L23.6,30.175a3.045,3.045,0,0,0,2.374,3.513L23.478,46.444a1,1,0,0,0,.79,1.173.962.962,0,0,0,.192.019,1,1,0,0,0,.98-.809l2.644-13.519c.045-.027.092-.048.136-.078a2.97,2.97,0,0,0,1.273-1.913s1.15-5.888,1.168-5.887l1.945.382L28.193,48.386A2,2,0,0,1,25.847,49.964Zm24.948.721a1.994,1.994,0,0,1-1.311.8l-15.8,2.492A2,2,0,0,1,32.2,53.62a1.977,1.977,0,0,1-.8-1.3l-.863-5.486s2.727-13.947,2.732-13.942a2.935,2.935,0,0,0,2.237.551A3.02,3.02,0,0,0,38,30.011l-.15-.987a1,1,0,0,1,.993-1.153,1.1,1.1,0,0,1,1,.945l.759,4.822a3.053,3.053,0,0,0,2.973,2.544,3.238,3.238,0,0,0,.457-.034l2.027,12.838a1,1,0,0,0,.986.844.932.932,0,0,0,.157-.013,1,1,0,0,0,.831-1.143L45.883,35.061a2.982,2.982,0,0,0,.644-2.346s-.929-5.927-.92-5.929l1.955-.309L51.152,49.2A1.977,1.977,0,0,1,50.8,50.685ZM52.5,44.931l-.312-1.976,1.978-.312a2,2,0,0,0,1.663-2.288l-1.4-8.89A2,2,0,0,0,52.14,29.8l-1.979.312-.312-1.976,2.967-.468a3,3,0,0,1,3.431,2.5l1.716,10.866a3,3,0,0,1-2.5,3.431Z"></path><path d="M15.752,28.63a1,1,0,0,0-1.173.79L11.7,44.142a1,1,0,0,0,.79,1.172.979.979,0,0,0,.193.019,1,1,0,0,0,.98-.809L16.542,29.8A1,1,0,0,0,15.752,28.63Z"></path><path d="M21.641,29.781a1,1,0,0,0-1.173.79L17.59,45.293a1,1,0,0,0,.79,1.173.967.967,0,0,0,.192.018,1,1,0,0,0,.981-.808l2.878-14.722A1,1,0,0,0,21.641,29.781Z"></path><path d="M38.623,33.961a1,1,0,0,0-.831,1.143l2.34,14.818a1,1,0,0,0,.986.844.924.924,0,0,0,.157-.013,1,1,0,0,0,.831-1.144L39.767,34.792A1,1,0,0,0,38.623,33.961Z"></path><path d="M33.82,42.018a1,1,0,0,0-.831,1.143l1.216,7.7a1,1,0,0,0,.986.844.944.944,0,0,0,.158-.013,1,1,0,0,0,.831-1.143l-1.216-7.7A1,1,0,0,0,33.82,42.018Z"></path><path d="M29,5v5a1,1,0,0,0,2,0V5a1,1,0,0,0-2,0Z"></path><path d="M22.553,5.105a1,1,0,0,0-.448,1.342l2,4a1,1,0,1,0,1.79-.894l-2-4A1,1,0,0,0,22.553,5.105Z"></path><path d="M36.1,5.553l-2,4a1,1,0,0,0,1.79.894l2-4a1,1,0,0,0-1.79-.894Z"></path></svg>