<?xml version="1.0" encoding="UTF-8"?>
<!DOCTYPE svg PUBLIC "-//W3C//DTD SVG 1.1//EN" "http://www.w3.org/Graphics/SVG/1.1/DTD/svg11.dtd">
<!-- Creator: CorelDRAW -->
<svg xmlns="http://www.w3.org/2000/svg" xml:space="preserve" width="572.339mm" height="140.838mm" version="1.1" style="shape-rendering:geometricPrecision; text-rendering:geometricPrecision; image-rendering:optimizeQuality; fill-rule:evenodd; clip-rule:evenodd"
viewBox="0 0 54999.48 13533.97"
 xmlns:xlink="http://www.w3.org/1999/xlink"
 xmlns:xodm="http://www.corel.com/coreldraw/odm/2003">
 <defs>
  <style type="text/css">
   <![CDATA[
    .fil3 {fill:#050505}
    .fil4 {fill:#060606}
    .fil7 {fill:#080703}
    .fil8 {fill:#090909}
    .fil6 {fill:#0C0A04}
    .fil0 {fill:#101010}
    .fil14 {fill:#111111}
    .fil13 {fill:#120E05}
    .fil11 {fill:#151515}
    .fil12 {fill:#161107}
    .fil10 {fill:#1B1508}
    .fil17 {fill:#1B1609}
    .fil26 {fill:#1D1D1D}
    .fil20 {fill:#212121}
    .fil9 {fill:#231C0B}
    .fil28 {fill:#262626}
    .fil23 {fill:#292929}
    .fil27 {fill:#2B2518}
    .fil29 {fill:#3A2E12}
    .fil24 {fill:#503F19}
    .fil30 {fill:#59471B}
    .fil31 {fill:#675938}
    .fil15 {fill:#DFB44C}
    .fil25 {fill:#EDC052}
    .fil16 {fill:#F2C14A}
    .fil18 {fill:#F3C75C}
    .fil2 {fill:#FDCA4E}
    .fil5 {fill:#FDCB50}
    .fil21 {fill:#FECC52}
    .fil19 {fill:#FECD56}
    .fil22 {fill:#FED05E}
    .fil1 {fill:#FEFEFE}
   ]]>
  </style>
 </defs>
 <g id="Camada_x0020_1">
  <metadata id="CorelCorpID_0Corel-Layer"/>
  <g id="_1957591936368">
   <path class="fil0" d="M43397.54 1707.64c249.56,280.1 265.96,-150.77 19.47,511.55 -175.65,472 -885.73,1499.71 -1021.38,2158.62 -185.72,903.1 89.24,211.57 -491.56,1375.19 -520.21,1042.07 48.66,552.07 -243.64,1291.28l622.18 307.86c532.45,-305.67 439.05,-428.16 1057.54,-448.07l598.86 -16.8c508.85,-40.16 67.85,-176.23 618.53,41.57 -450.19,909.78 -196.32,527.96 -80.49,1236.16 115.39,706.01 -200.81,944.09 33.22,1802.16 336.75,1234.05 -733.26,964.54 583.86,1616.29 235.68,-596.17 -122.11,-274.93 305.79,-1139.64l-311.06 -153.94c264.1,-668.06 -13.04,31.23 108.43,-642.54 5.73,-31.91 13.24,-62.21 19.4,-94.37 212.9,-1103.71 28.02,-503.46 485.79,-1024.9 -73.04,-555.77 -267.93,-1152.27 -7.56,-1810.93 371.89,4.57 925.87,325.5 1343.75,-367.73l518.46 256.57 100.49 -724.79c83.96,-598.53 76.78,37.99 -414.86,-205.27 -337.06,-166.79 -33.79,-128.62 -415.81,-464.03 -285.61,223.39 -223,260.88 -307.86,622.18 -921.29,-430.59 -422.03,157.41 -1190.97,-202.09 7.98,-658.84 504.34,-655.36 -129.4,-1609.92 -416.8,-627.66 -580.65,-346.2 -859.39,217.05 -158.73,320.75 16.31,-39.78 -93.82,808.91 -3.84,29.02 -7.09,60.82 -10.63,89.89 -53.64,436.79 17.84,319.56 -250.53,861.87 -793.7,-313.74 -50.94,232.95 -1035.89,-254.42 408.91,-826.35 187.35,-301.59 413.33,-541.64l99.81 -115.41c550.73,-716.68 11.25,-402.61 461.84,-1313.18 232.81,-470.46 181.76,169.38 771.84,-782.43l772.95 -1034.87c-143.59,-249.92 -118.13,-222.2 -326.72,-495.74 -288.11,-377.83 -687.36,-701.47 -1269.28,-394.08 -337.36,178.27 -260.7,207.04 -474.74,639.61l0 0.07 0.07 -0.03z"/>
   <path class="fil0" d="M26395.74 6848.71c-162.8,328.97 -320.12,1131.91 -219.64,1542.23 2.04,8.16 58.76,186.57 68.13,236.03 6.99,37.93 -60.73,305.08 126.84,647.98l1022.04 1036.35c78.28,38.75 1134.36,133.35 1513.43,-120.92 440.97,-295.62 239.19,-29.86 758.17,-1078.6 379.16,-766.23 -285.3,-1107.84 -7.43,-1810.86l-1037.01 -513.15 -307.86 622.18c663.88,400.15 338.47,705.85 369.99,1861.12 -1080.93,620.66 -871.97,12.62 -1398.26,-304.68 329.74,-833.97 -298.65,-700.77 251.26,-1812.03 222.95,-450.57 561.11,-53.04 980.39,-676.37 71.99,-106.93 191.63,-387.84 256.43,-518.79 -353.59,-174.97 -859.69,-542.04 -1105.41,-128.47 -32.9,55.36 276.1,30.19 -309.46,251.97 -29.48,11.16 -128.12,35.84 -158.97,50.48l-802.62 715.51 -0.02 0.07 0 -0.04z"/>
   <path class="fil0" d="M17645.67 5487.77c-542.24,899.56 31.93,-586.24 -1028.41,1556.55l-168.14 1179.41 772.35 1379.79c280.92,264.19 1595.64,853.04 1997.86,1052.06 264.19,-438.44 295.16,-374.63 775.07,-262.01l872.31 -1762.79c-287.82,-105.2 -440.96,-48.66 -734.89,125.16 -979.63,579.29 -721.87,1348.43 -2003.94,714.03 -171.68,-84.96 -638.82,-654.12 -607.46,-1349.14l37.15 -532.34c40.47,-580.05 -71.1,497.09 9.26,-180.52 14.23,-119.65 -53.29,-265.12 248.32,-619.79 20.27,-24 45.11,-43.98 66.65,-66.26 769,-789.64 398.41,-149.11 1472.44,-267 39.98,-4.44 206.73,-30.52 332.24,-38.81 321.17,-21.13 -80.83,-54.5 343.18,-6.74 117.86,-585.7 -301.39,-1459.27 -1542.58,-987.31 -392.33,149.2 -410.28,236.25 -841.38,65.77l-0.05 -0.02 0 -0.04z"/>
   <path class="fil0" d="M24473.58 4993.87c-367.88,743.45 48.66,0.29 -197.76,1275.85 -188.47,975.5 414.76,1352.56 -705.7,1161.44 -443.17,-75.69 -401.83,28.77 -794.1,-50.06 293.1,-741.39 -225.65,-241.28 142.9,-1084.65 483.55,-1106.25 848.34,-877.55 -516.03,-1552.71 -408.45,825.4 -100.36,150.06 -164.56,1264.56 -67.5,1173.52 157.9,575.06 -443.68,1790.76 525.85,672.33 672.48,321.21 555.26,1712.25 -64.29,763.44 -332.4,1543.63 235.75,1906.5 135.17,-369.63 116.54,-994.35 133.95,-1513.3 31.96,-949.45 -220.06,-660.53 215.66,-1541l-208.45 -361.32c398.67,145.78 568.14,51.06 1078.78,126.15 74.71,10.88 6.12,-69.4 370.82,74.81 -399.85,808 -3.67,401.48 -254.42,1035.89l311.09 153.94c-331.27,837.95 272.61,-29.02 -305.7,1139.69 942.2,466.24 -8.06,254.15 934.26,720.46l256.57 -518.46c-383.89,-231.46 -246.38,-130.75 -391.43,-472.24 -349.35,-822.85 53.2,-813.92 -21.95,-1374.22 -77.16,-573.95 -233.14,16.95 -37.35,-937.22 113.86,-554.89 -83.65,-323 20.03,-1388.5 2.87,-28.31 4.51,-60.58 7.16,-88.67 54.77,-583.06 69.15,-501.11 349.77,-1068.17l-311.09 -153.94 256.61 -518.55c-214.95,28.24 -379.14,-16.39 -516.36,260.9l-0.05 -0.09 0 -0.08z"/>
   <path class="fil0" d="M35804.27 4791.83l-359.23 725.92 311.09 153.94 -226.25 503.1c-12.48,28.29 -25.42,58.17 -37.04,84.74l-136.12 1619.67c-4.35,29.72 -10.1,61.46 -14.28,91.12l-286.05 2082.95c-102.32,567 -287.6,581.76 102.2,1260.71 68.25,-137.91 82.39,-148.89 117.42,-298.67l39.38 -358.78c60.71,-416.64 133.71,-393.68 304.12,-793.57 275.46,-645.96 65.13,-244.37 136.51,-650.56 70.61,-401.57 187.37,-440 319.56,-798.94 223.94,-608.81 4.29,-122.3 44.89,-706.07l167.79 -920.19c32.42,-164.16 66.55,-218.36 88.87,-375.45 43.78,-306.89 15.2,50.04 3.84,-346.78 -12.02,-420.05 -345.46,346.2 252.72,-862.63 1150.81,569.46 917.62,360.91 1051.89,767.2 183.92,556.93 -262.14,14.52 143.37,469.79l-615.74 1244.34c-615.62,-243.51 -212.85,91.49 -828.56,-151.83l-153.94 311.09 829.55 410.5c386.33,-221.73 206.31,11.67 464.03,-415.81l311.09 153.94c734.01,-1483.34 522.99,-866.1 455.03,-1708.25l-6.99 -170.4c6.12,-425.57 -179.28,201.73 59.71,-451.96 -808.4,-487.41 309.75,-104.89 -1038,-771.82 -223.63,-110.65 -166.59,-47.52 -710.14,-57.15 -794.94,-14.21 -199.35,193.64 -790.76,-40.23l0.02 0.07 0.01 0.02z"/>
   <path class="fil0" d="M31924.76 5066.64l-518.55 -256.61c-163.06,348.97 -218.11,252.5 -78.33,630.91l237.71 351.49 -618.02 727.02c756.06,455.72 107.66,461.9 185.67,1491.69 24.49,324.81 88.4,308.15 31.47,593.91 -69.75,350.16 -139.01,212.52 -239.68,858.13l-25.22 181.29c-5.63,31.05 -13.35,61.73 -19.6,92.92l-114.46 643.22c-47.16,328.84 -106.33,342.14 -109.99,641.58l518.57 256.61 153.94 -311.09 -311.09 -153.94 152.23 -569.58c84.78,-653.81 162.15,-469.71 352.53,-982.62 217.49,-585.92 -26.85,-197.78 128.52,-734.25 70.77,-244.72 317.21,-677.94 439.94,-925.97l-311.09 -153.94c303.15,-612.63 623.31,-1695.28 560.06,-2175.42 635.16,296.74 270.78,217.53 517.51,-2.19l414.86 205.27c-91.08,452.11 12.43,376.93 171.79,805.55 252.66,679.4 204.74,520.45 -111.91,1160.4 -198.06,400.24 -624.41,207.43 -1034.82,4.35 -192.57,411.98 -148.79,229.19 -152.92,569.69 28.43,3.25 85.27,-27.2 85.75,-1.92l866.75 9.3c606.51,-68.69 119.94,20.78 374.83,-168.39 452.09,-335.56 -148.19,-304.15 430.13,-260.12l256.59 -518.55c-149.52,-167.73 -250.58,-15.32 151.76,-828.42l-311.09 -153.94c97.86,-267.64 144.23,-217.27 -37.71,-591.77l-134.24 -213.69c-338.23,-539.1 272.84,403.18 -89.38,-142.57 -454.02,-684.08 -519.15,-401.46 -711.09,-396.58 -901.89,23.19 -783.36,-209.3 -1101.48,318.36l0.11 -0.13 -0.01 0z"/>
   <path class="fil0" d="M51600.4 8348.49c-1045.89,2113.6 -725.72,1964.51 -1753.29,1456.02 -344.86,-170.67 -211.53,-336.39 -54.52,-672.39l-311.09 -153.94c117.82,-238.09 252.52,-456.69 308.68,-708.81 102.59,-459.69 -101.95,-73.18 103.03,-639.24 378.32,-1044.3 795.29,-907.74 405.15,-1345.86 29.72,-391.89 303.46,-20.78 -211.32,-382.37 -432.76,-303.95 -667.73,-41.18 -835.94,370.94 -215.26,526.82 -87.72,309.72 -104.75,572.83l-30.52 529.05c-3.11,28.82 -6.07,60.68 -10.1,89.71l-62.65 884.89c0.71,25.99 2.72,59.17 2.41,85.49 -0.44,27.05 -2.87,60.34 -4.42,87.78 -31.16,559.99 -335.53,1493.39 744.91,1907.31l560.32 85.93c394.7,-11.63 465.66,-76.2 774.24,-265.34 549.6,-336.68 260.37,107.01 845.53,-1075.49 141.22,-285.39 -87.14,-121.51 39.96,-963.46 4.51,-29.77 9.28,-61.24 13.99,-91.1l81.33 -459.25c84.8,-533.74 276.81,-148.74 -40.14,-504.58l517.47 -2.09c-102.24,-778.45 -625.89,-403.62 -315.38,-1188.84l-311.09 -153.94c-186.42,376.71 -205.1,329.68 -239.68,685.5 -70.97,731.2 182.44,238 -32.71,1220.04 -194.8,888.53 199.59,67.79 -79.28,631.33l-0.15 -0.07 0.05 -0.05z"/>
   <path class="fil0" d="M53606.94 5597.86c-166.97,337.41 168.63,599.52 106.13,1000.39 -32.36,206.89 -109.36,310.27 -203.48,500.47 124.41,172.56 268.28,275.93 301.72,502.54 44.71,302.83 -87.43,193.08 -2.04,691.47 44.14,257.74 165.11,602.07 93.14,1004.83 -42.68,239.11 -3.45,130.48 -123.44,387.18 741.32,473.55 -221.71,41.71 519.54,515.26 254.91,-515.12 169.12,-355.6 147.31,-826.96 -26.47,-576.94 103.7,-645.6 64.64,-1317.23l41.72 -618.62c12.89,-87.99 25.06,-183.68 37.86,-271.87l13.19 -781.55c7.29,-317.01 83.3,-359.02 245.89,-687.6l-1037.01 -513.15 -205.27 414.83 0.07 -0.02 0.02 0.03z"/>
   <path class="fil0" d="M54092.32 10356.12c-442.61,894.46 -376.22,603.13 -305.79,1139.64 443.56,89.26 400.6,-50.92 827.45,-106.96l307.86 -622.18c203.28,-410.78 -42.17,-316.81 -173.05,-302.91 -297.85,31.93 67.69,250.77 -656.5,-107.59l0 0 0.02 0.01z"/>
   <path class="fil0" d="M50858.43 4108.67c-194.24,392.53 87.96,430.79 675.62,721.57l410.5 -829.53 -622.18 -307.88c-133.98,96.67 -377.01,240.19 -463.94,415.85l0 0z"/>
   <path class="fil0" d="M49771.23 3957.96l-205.27 414.83 829.53 410.5 359.23 -725.92 -518.46 -256.57c-238.95,-118.24 -346.78,-81.82 -465.02,157.14l-0.01 0.02z"/>
   <path class="fil0" d="M21915.4 11989.71c353.7,71.23 227.08,113.9 465.02,-157.14 -268.01,-53.95 -314.78,-126.46 -465.02,157.14z"/>
  </g>
  <path class="fil1" d="M7639.36 6911.96c3.25,650.27 547.17,1961.59 764.58,2581.19 146.22,416.71 175.92,528.16 528.25,699.82 -123.21,235.81 -48.56,482.46 129.11,635.6 377.64,246.23 4352.29,-924.56 4431.79,-1441.14 43.87,-284.99 -148.28,-132.28 -186.69,-668.06 -42.54,-592.7 193.8,-121.75 182.06,-755.36 346.58,-103.12 523.01,-116.96 815.61,-293.83 212.46,-128.4 430.11,-309.85 558.51,-551.81 481.9,-908.83 63.67,-2745.09 -839.36,-3303.59 -748.79,-463.12 -1245.48,61.17 -1786.73,198.71 -276.75,-422.92 -86.61,-753.77 -306.16,-1124.15l0.07 -0.02 -49.53 -159.59c1.68,-1.6 3.49,-3.2 5.06,-4.78l489.31 -203.57c-9.2,-2.26 -30.45,-23.5 -35.98,-10.41l-152.03 -4.78c-7.09,2.06 -196.5,98.92 -237.74,116.96 -29.19,12.77 -59.08,25.79 -89.55,38.99 -70.1,-127.04 -113.35,-258.95 -123.21,-396.97l-0.07 -0.2c-112.61,-379.25 -424.97,-573.95 -930.17,-486.61 -1102.38,190.48 -1492.28,-492.2 -2573.87,346.32 -709.1,549.6 -267.86,219.3 -866.9,367.12 -244.04,60.16 -68.84,84.27 -333.96,124.67 -423.41,-232.9 -648.79,-755.3 -1403.66,-760.6 -674.62,-4.78 -1137.94,442.9 -1731.54,-90.21 -1.79,14.98 -3.71,28.36 -5.68,40.36 -315.7,65.48 -575.86,381.04 -818.06,777.3l-11.27 496.36 -174.86 268.52c-32.97,37.49 -58.2,77.29 -77.16,118.46l-0.07 0.09 0 0c-191.19,415.86 245.7,970.62 -439.38,659.59 -1144.64,-519.61 -1836.62,224.63 -2184.7,1354.97 -405.53,1316.56 -203.57,2819.61 1221.64,2825.62 -20.93,442.59 -66.92,249.07 167.48,453.37 -102.35,277.05 -46.35,328.79 21.15,584.76 -99.04,123.08 -42.01,31.56 -90.28,89.6 -63.96,76.87 -17.55,-47.16 -96.01,143.04 -258.11,625.72 1145.28,902.97 1773.2,1102.16 796.17,252.59 3525.79,1296.33 2920.74,-106.7 383.69,-320.41 383.78,-122.81 594.97,-743.55 328.22,-964.52 752.75,-2229.25 867.26,-3232.8 5.02,-12.62 9.83,-25.72 14.45,-39.21l59.43 354.3 -0.04 0.09zm5531.27 612.15c-107.23,-503.94 -161.71,-986.82 -321.7,-1511.82 -87.19,-253.65 -196.36,-468.74 -215.57,-702.52 -19.4,-236.17 22.63,-539.19 278.87,-726.65 89.86,-65.75 206.8,-94.19 317.96,-102.64 174.26,-13.26 379.67,60.44 500.31,177.83 149.16,145.1 210.8,255.82 313.59,513.58 167.39,419.65 264.73,1152.75 149.09,1586.12 -75.59,283.29 -256.72,557.44 -537,669.56 -131.06,52.42 -277.99,84.62 -439.67,94.5l-45.89 2.06 0 -0.01zm-11387.26 243.9c107.23,-503.94 161.71,-986.82 321.7,-1511.82 121.24,-352.73 222.17,-697.06 174.9,-980.36 -99.6,-393.2 -425.26,-444.05 -695.07,-340.49 -263.2,101.03 -517.82,483.21 -634.14,730.19 -185.49,393.83 -285.76,900.14 -189.98,1336.34 62.88,286.4 256.72,557.42 537,669.56 131.06,52.42 277.99,84.62 439.67,94.5l45.89 2.06 0.03 0.03z"/>
  <path class="fil2" d="M4636.8 9675.33l-203.7 -11.19c-154.18,-246.58 -127.43,-807.07 299.97,-767.16 148.52,251.7 95.32,472.91 -31.36,686.36 126.68,257.62 -443.3,625.87 -769.31,113.88 -83.79,-382.88 147.26,-1134.01 519.97,-877.22 -9.2,9.88 -21.68,24.33 -28.05,29.21l-101.76 68.45c-127.43,74.1 -196.58,42.54 -276.77,366.56 -156.52,632.22 459.19,794.66 590.95,391.07l0 0 0.05 0.04zm-1417.01 -564.39l-29.55 125.8c0,108.65 23.41,82.53 -87.65,54.83 93.17,-163.21 24.38,-34.06 80.61,-188.08 -153.89,-151.26 -163.28,-688.09 222,-755.62 199.76,240.36 46.01,548.14 -66.24,755.09 -75.32,-213.29 60,247.35 -24.04,-134.2 -16.58,-75.15 -10.66,-59.45 -27.98,-98.5l-67.14 240.7 0 -0.02 0 -0.01zm2484.9 -1153.41c292.7,-34.39 329.12,128.67 264.88,441.06 -45.64,222.34 -117.64,323.6 -340.3,349.5 -182,-259.81 -58.5,-557.38 75.43,-790.56zm-2602.12 1334.04c-1.46,1.94 15.4,175.43 -309.99,83.65 -551.52,-155.54 -242.93,-1236.36 258.93,-1152.73 -74.88,115.7 7.8,20.66 -86.48,100.49 -177.16,149.98 171.76,-146.09 -72.31,45.24 -199.61,156.47 -628.83,1027.64 209.83,923.35l0.02 0zm2602.12 -1334.04c-296.88,53.2 -383.56,396.89 -357.85,760.06 291.91,253.01 379.49,246.77 641.94,48.82 -213.43,413.19 -563.15,195.46 -753.28,-63.21 -36.05,-403.25 140.69,-1050.92 506.5,-880.6l-37.29 134.9 0 0 -0.03 0.04zm-1544.38 452.49c-168.34,-256.04 -71.07,-645.32 239,-714.25 147.94,207.39 128.89,206.87 20.66,372.03 9.13,207.68 -131.3,348.92 -254.53,444.18 -1064.81,127.65 -435.69,-1514.87 -13.94,-1097.9 -872.65,418.63 -279.88,1289.84 8.84,995.92l0 0.02 -0.03 0zm1057.74 -955.72c-371.18,-131.36 -316.68,-784.8 191.9,-800.82 152.32,323.76 128.96,660.54 -191.9,800.82zm-1816.77 -512.51l236.01 123.79c-89.11,-12.65 -35.91,19.05 -143.19,-30.19 -167.48,-76.95 -22.65,-5.66 -92.82,-93.6l0 0zm351.64 129.31c-44.75,-161.91 -76.8,-341.48 -6.92,-541.87 70.46,-201.75 96.69,-233.67 302.54,-267.77 187.79,256.52 158.73,826.66 -295.62,809.66l0 -0.02zm1759.73 286.2c-228.26,569.49 -1133.33,156.18 -647.33,-699.97 231.95,-408.51 385.48,-195.68 415.61,-176.5l-69.88 53c-385.15,265.85 -528.45,609.83 -178.61,995.59 393.08,-2.01 276.97,43.23 480.25,-172.12l-0.03 0zm-2111.37 -415.54c-14.5,-4 -146.09,65.9 -161.42,-287.17 -4.97,-113.68 26.72,-284.23 62.86,-390.19 37.66,-110.65 109.2,-237.05 178.95,-294.82 244.56,-202.51 304.82,-15.54 305.72,-15.05 -193.8,191.17 -266.14,71.96 -390.05,398.74 -100.38,264.59 -85.15,350.32 3.93,588.5l0.02 0 0 -0.01zm1672.66 -1004.01l-31.56 198.25c-527.28,323.51 -878.72,36.69 -825.69,-630.84l-811.61 15.27 -271.66 433.75c-556.21,4.49 -727.18,-684.77 -702.58,1201.7 100.55,-74.88 43.65,-47.1 91.71,-31.76 -98.77,289.96 6.63,40.89 -117.16,136.89l0.13 65.61c277.67,-37.51 236.9,-217.49 471.76,-92.98 254.73,171.5 142.28,779.8 -289.06,772.09l-105.33 -11.05 -163.21 32.73c64.25,291.47 129.58,298.45 -112.64,528.67 -919.54,874.01 499.39,624.81 1005.32,1132.68l-621.1 -8.06c207.77,177.45 1023.48,440.62 1362.86,520.45l445.07 140.47 1156.37 150.37 25.06 -112.36c-243.29,-92.78 -111.08,-49.11 -308.61,-186 -61.75,-434.65 62.01,-873.26 413.79,-1008.14 146.7,43.68 54.17,-8.77 171.23,89.99 122.24,167.97 148.03,299.91 80.4,554.55 -63.76,240.28 -122.04,323.2 -365.04,327.26 -71.5,-169.09 -75.56,-347.36 -40.98,-571.92 -1.75,1.6 -150.22,37.24 -166.33,347.16 -13.33,257.76 217.16,654.36 654.8,80.47 -31.56,212.8 -150.28,257.36 -274.27,404.27 339.62,-79.83 362.41,-378.1 511.45,-677.1 57.55,-115.34 150.08,-266.69 196.1,-389.51 276.77,-737.75 -574.24,-187.39 189.54,-1211.49 316.81,-424.84 532.87,-574.42 231.18,-742.19 -67.76,138.7 -90.57,234.75 -310.89,376.18 -609.47,160.78 -609.32,-1133.26 82.46,-1188.77 -69.55,153.4 -25.06,89.99 -131.57,204.06 169.09,102.3 144.16,164.45 159.21,421.13 288.43,-442.68 525.07,-797.55 546.9,-1374.51 -399.52,-113.58 -438.61,-135.24 -774.14,60.97 -30.54,365.33 -45.6,495.3 -412.77,531.24 1.65,1.37 -26.88,143.74 277.94,53.11 60.36,-17.97 139.92,-85.73 206.51,-127.37 -335.42,556.91 -1114.9,118.27 -626.47,-849.97l-792.51 -144.91c253.85,226.58 39.87,192.14 -24.74,579.66l0.09 -0.05z"/>
  <path class="fil2" d="M10831.28 9462.7l78.86 -468.84c37.08,99.6 66.65,197.82 49.88,296.74 -38.15,225.65 -81.64,150.71 -128.76,172.12l0 -0.02 0.02 0zm0 0c-40.75,67.41 87.94,48.27 -150.44,142.99 -314.67,125.02 -491.98,-74.66 -586.07,-344.52 -141.6,-406.08 -104.49,-736.42 299.42,-776.29 386.3,109.4 389.9,642.23 277.26,918.71 -321.26,-85.93 -364.84,-438.03 -344.52,-758.05 -199.68,168.46 -230.29,288.04 -106.3,609.69 132.6,344.26 263.5,325.81 610.66,207.48l0.02 0 -0.02 0zm866.29 -594.27c126.62,175.17 271.44,180.36 428.82,17.48l87.94 -109.62c7.38,-8.98 21.15,-25.71 32.34,-38.05 -44.14,183.86 -70.51,184.14 -163.56,315.31 -220.13,20.37 -550.35,117.27 -667.29,-529.86 -64.58,-357.24 -5.59,-536.07 325.75,-589.67 -85.86,210.27 8.49,43.49 -88.62,182.13 148.31,64.15 200.85,131.57 227.1,360.75 27,236.64 -1.57,345.7 -182.42,391.51l0 0 -0.05 0.02zm-2073.36 -1013.19c81.84,73.71 108.36,75.69 105.82,261.56 -0.97,71.63 -1.85,86.97 -30.13,152.58 -67.67,157.2 -6.78,26.46 -99.79,90.28l-4.97 -76.12c-212.7,3.45 -272.63,-60.02 -319.12,-307.93 -47.93,-255.55 -13.33,-287.39 94.15,-431.27 217,61.91 196.92,70.88 254.05,310.89l-0.02 0zm-24.09 504.43c-127.98,251.75 -471.96,168.9 -484.47,162.88 -280.28,-134.55 -580.63,-1157.44 42.35,-1127.73 -54.77,268.21 -379.53,157.2 -193.76,716.6 129.18,389.08 266,374.23 635.89,248.24l-0.01 0.02zm985 -1236.84c172.69,92.49 72.89,-34.19 184.7,184.63 98.7,193.27 184.19,540.41 3.86,736.58 -187.55,-33.57 -194.73,-82.75 -263.09,-305.36 -64.78,-210.86 -64.78,-285.45 -30.13,-499.39 -402.96,352.6 163.7,1186.85 533.93,770.96 113.07,-126.88 64.86,-324.77 73.57,-506.64 147.39,441.77 49.17,655.48 -431.23,707.27 -469.42,-70.39 -565.98,-1024.33 -255.97,-1148.09 284.23,-6.02 128.83,2.5 184.34,60l0 0.02 0.02 0.03zm-469.2 -98.77c4.2,-19.01 9.97,-42.21 14.72,-56.62l91.12 -257.57c12.24,-92.82 -15.89,-129.86 -11.94,-265.92 115.34,212.55 178.27,449.8 -93.86,580.14l-0.02 -0.02 -0.03 -0.02zm1622.68 -274.35c134.83,176.57 254.58,396.68 259.51,677.8l-150.08 83.23c100.91,101.62 225.93,78.41 332.79,138.84 -842.94,98.63 -772,-728.99 -529.84,-934.47 86.77,-215.01 117.84,-190.29 321.17,-262.53 -27.65,254.58 -77.68,69.81 -233.51,297.17l0 -0.02 -0.03 -0.02zm-2187.09 -78.53l91.85 -424.73c366.01,68.71 418.14,383.27 368.15,775.51l104.36 2.06c-0.13,0.22 9.52,74.1 -158.86,110.5 -368.75,79.63 -543.65,-193.08 -589.39,-598.02 -41.18,-364.64 69,-490.06 375.89,-543.39 -113.29,219.04 -143.96,131.57 -221.8,290.03 -119.7,243.59 23.07,376.47 29.77,387.98l0 0.05 0.02 0.03zm1585.8 -138.83c172.74,74.74 275.18,-11.73 414.57,-94.64l-3.81 -518.88c402.55,979.29 -1044.78,1100.72 -826.69,-209.83l286.22 -201.07c74.39,91.45 105.13,-36.88 32.88,160.59 151.75,33.97 40.69,-51.36 152.43,99.52 149.45,201.96 134.06,479.5 87.85,700.59l-143.48 63.67 0 0.02 0.03 0.03zm-536.34 -1149.68l97.02 -363.65c15.83,100.65 41.79,190.84 25.35,294.05 -39.29,247.06 -98.55,159.28 -123.3,175.57 -67.57,104.65 88.67,10.01 -113.4,121.23 -454.56,250.02 -597.82,-276.3 -671.24,-488.14l-1022.66 316.19c119.76,154.93 88.67,80.07 285.74,157.56l-1.72 258.93 98.77 -356c99.32,555.26 -91.1,452.01 -141.17,485.51l25.22 -9.72c-29.55,32.24 -20.71,189.05 -331.82,167.28 -328.3,-22.92 -397.92,-397.43 -455.87,-583.3l-363.8 97.75c-88.14,262.74 -93.75,-252.72 55.19,83.43 46.89,105.82 81.77,-63.61 8.77,101.66 -78.89,178.56 -74.88,-31.64 -170.4,245.6 152.03,204.66 69.9,183.17 292.17,294.94 95.85,-50.85 117.64,-74.39 261.78,-61.33 -37.71,74.66 -55.05,105.18 -100.49,170.46l361.52 -5.53 178.9 334.91 8.45 508.23c-354.82,182.98 -426.66,161.62 -670.56,-145.62 -28.44,46.41 -44.46,6.34 -28.53,157.75 25.84,244.92 569.89,879.28 579.08,953.24 -91.52,409.86 -259.81,410.41 118.75,768.49l124.83 -101.47c75.54,-45.79 91.03,-48.91 192.01,-63.21 -15.14,222.73 -65.42,149.25 -200.19,321.36 -96.91,269.81 242.84,1056.65 633.68,530.46 -344.47,-26.32 -465.13,-549.03 -241.38,-801.59 232.5,31.85 272.63,124.39 282.78,399.23l73.09 103.41c7.96,512.03 -192.79,608.38 -657.76,534.95 8.16,13.06 22.24,16.8 25.84,38.34 4.49,27.2 39.23,63.37 46.01,75.78 26.23,48.27 9.59,-6.78 53.66,111.54 72.53,-14.57 234.45,-72.18 271.44,-77.64 333.59,-48.85 157.36,-70.03 226.07,60.65 678.53,-133.51 2213.72,-449.8 2653.41,-788.66l-586.36 131.79c76.8,-555.13 969.14,-225.32 1249.35,-790.1l-475.15 13.68c497.64,-575.9 9.04,-494.55 -246.86,-934.86 26.17,-413.19 233.87,-163.21 97.95,-603.19 -225.81,-731.12 132.6,-1275.74 -276.83,-1766.62l-460.07 208.26c-81.93,-272.41 -10.92,-233.47 -7.12,-479.01 4.15,-266.84 -34.1,-162.51 -158.17,-341.92 248.24,-124.73 266.69,-36.4 407.45,-233.96 -173.49,-96.78 -173.03,-32.12 -689.48,134.06 -237.05,76.25 -465.49,145.05 -704.04,229.91 112.91,230.98 221.36,8.49 164.09,409.2l-0.02 0.05 0.02 0.06z"/>
  <path class="fil3" d="M4116.97 4433.79c-116.03,7.38 -92.54,-26.17 -92.54,79.01 401.83,38.9 1244.66,341.54 1710.53,459.61 558.84,141.58 1216.35,306.18 1816.48,359.87 15.34,570.38 -408.07,2136.34 -556.69,2752.4l-557.95 1894.56c-169.23,427.95 -272.28,315.31 -387.47,488.53 -258.47,388.79 580.28,1087.6 -2310.56,238.56 -452.91,-133.03 -849.57,-266.89 -1281.95,-412.22 -574.87,-193.27 -932.19,-170.18 -843.42,-829.39 172.32,56.02 41.18,43.39 144.56,63.76l109.29 0.88c6.7,-0.37 25.55,-2.28 36.93,-7.6l-246.6 -213.07c-7.58,-377.46 145.88,-685.03 144.85,-872.87 -94.08,128.83 -116.47,149.89 -282.85,106.72l3.81 -151.19c-6.34,-301.43 -271.66,-184.27 -525.78,-266 -169.58,-54.48 -367.34,-254.44 -461.04,-354.47 -287.39,-306.81 -381.35,-826.92 -358.54,-1364.92 59.63,-790.32 360.77,-1618.19 767.34,-2034.28 628.21,-642.91 1440.46,-77.48 2105.07,180.21l31.98 389.41c174.46,-261.85 67.87,-391.62 -77.44,-558.09l234.16 -202.99c-659.35,-215.44 -212.74,-573.1 -349.43,-835.34 -374.27,415.4 235.26,1125.78 -520.45,782.69 -1144.64,-519.61 -1836.62,224.63 -2184.7,1354.97 -405.53,1316.56 -203.57,2819.61 1221.64,2825.62 -20.93,442.59 -66.92,249.07 167.48,453.37 -102.35,277.05 -46.35,328.79 21.15,584.76 -99.04,123.08 -42.01,31.56 -90.28,89.6 -63.96,76.87 -17.55,-47.16 -96.01,143.04 -258.11,625.72 1145.28,902.97 1773.2,1102.16 796.17,252.59 3525.79,1296.33 2920.74,-106.7 383.69,-320.41 383.78,-122.81 594.97,-743.55 328.22,-964.52 752.75,-2229.25 867.26,-3232.8 90.48,-227.37 113.56,-598.71 180.77,-864.76 106.11,-419.6 66.63,-99.81 199.81,-324.49 43.78,-73.77 43.51,-130.75 67.76,-219.04 60.58,-220.59 -41.04,96.23 26.52,-98.28 102.1,-293.96 567.83,-240.57 1290.04,-464.16l1224.91 -440.82c-805.3,115.57 -1551.83,462.99 -2487.66,561.42 56.62,-246.09 33.37,-191.26 206.02,-291.47 -5.61,-17 -21.97,-56.43 -25.99,-46.98l-46.76 -90.77c-172.2,-446.59 442.9,-309.92 1747.54,-768.53 401.92,-141.27 1713.71,-600.3 1937.46,-824.02l489.31 -203.57c-9.2,-2.26 -30.45,-23.5 -35.98,-10.41l-152.03 -4.78c-7.09,2.06 -196.5,98.92 -237.74,116.96 -968.43,423.96 -2662.63,1086.85 -3629.95,1160.11 9.23,-787.76 -479.01,-743.4 -1046.55,-1088.48 693.78,-327.4 78.33,209.49 1041.23,-487.98 1246.81,-903.05 1428.03,-36.76 2464.09,-285.9 571.21,-137.31 756.55,177.29 990.82,492.2 -71.14,-475.21 -395.29,-732.84 -962.64,-634.75 -1102.38,190.48 -1492.28,-492.2 -2573.87,346.32 -709.1,549.6 -267.86,219.3 -866.9,367.12 -244.04,60.16 -68.84,84.27 -333.96,124.67 -423.41,-232.9 -648.79,-755.3 -1403.66,-760.6 -674.62,-4.78 -1137.94,442.9 -1731.54,-90.21 -29.91,250.05 -93.99,61.66 95.25,206.51 532.47,407.65 1708.54,-264.54 2306.21,215.15 122.88,98.63 126.68,137.38 172.05,180.48 64.51,61.4 26.81,25.95 94.28,76.44 423.8,317.25 133.31,316.7 534.46,397.48 453.52,91.39 207.84,76.6 530.81,231.13 252.04,120.51 367.83,38.87 446.41,321.08 93.99,337.68 -21.35,961.69 -442.9,952.36 -811.58,-17.97 -2786.88,-678.82 -3648.87,-871.63 10.01,12.44 27.49,13.33 33.77,34.06 6.07,20.37 25.84,26.1 34.58,32.12 181.6,125.16 606.44,214.4 838.59,283.11 1108.3,327.86 1917.81,498.02 3056.3,741.02l-127.7 634.95c-889.29,100.55 -2861.66,-562.11 -3702.09,-767.38l0.13 -0.07 -0.02 0.17z"/>
  <path class="fil3" d="M14788.5 6828.27c-226.82,563.48 -393.28,738.52 -1028,883.63 -227.8,84.96 -78.37,10.49 -226.82,121.71 -87.72,65.66 -76.51,70.32 -161.95,117.84l-134.2 268.35 -55.6 -220.28c-78.13,-44.95 -70.95,-40.47 -191.55,-63.96 25.35,324.49 154.09,190.84 189.18,778.44 29.35,491.28 -239.62,173.87 -291.47,561.47 137.18,-47.59 233.47,-117.2 350.61,-174 107.28,205.05 72.89,53.3 157.2,257.5 -401.02,360.69 -1493.32,752.66 -2107.08,912.84 -403.93,105.33 -820.16,200.39 -1231.12,283.04 -998.09,200.65 -1011.61,156.1 -922.46,-343.84 -44.07,-118.32 -27.43,-63.27 -53.66,-111.54 -6.78,-12.44 -41.52,-48.56 -46.01,-75.78 -3.6,-21.54 -17.68,-25.28 -25.84,-38.34 -371.82,-112.52 -609.01,-1092.71 -764.33,-1560.44 -167.9,-505.69 -330.17,-1381.7 -512.71,-1822.84 -12.7,14.37 -46.81,-68.25 -81.64,153.89 -108.93,568.17 515.26,2063.63 752.05,2738.46 146.22,416.71 175.92,528.16 528.25,699.82 -123.21,235.81 -48.56,482.46 129.11,635.6 377.64,246.23 4352.29,-924.56 4431.79,-1441.14 43.87,-284.99 -148.28,-132.28 -186.69,-668.06 -42.54,-592.7 193.8,-121.75 182.06,-755.36 346.58,-103.12 523.01,-116.96 815.61,-293.83 212.46,-128.4 430.11,-309.85 558.51,-551.81 481.9,-908.83 63.67,-2745.09 -839.36,-3303.59 -748.79,-463.12 -1245.48,61.17 -1786.73,198.71 -284.28,-434.46 -75.83,-771.74 -324.97,-1154.52 -131.04,29.13 -22.1,-27.17 -94.84,53.3 145.6,509.46 195.68,553.8 -101.81,857.33 76.31,85.79 216.27,104.16 289.34,195.32 -124.05,306.18 -215.37,103.97 -218.18,463.61 244.53,-292.3 100.3,-196.43 534.52,-320.84 414.23,-118.59 1072.61,-754.38 1873.05,5.95 291.75,277.19 474.72,666.47 595.04,1156.09 192.79,784.59 79.34,862.79 0.68,1557.28l0.05 0.02 -0.06 -0.01z"/>
  <path class="fil0" d="M6331.86 11685.54c498.61,394.32 3274.8,-135.03 4136.72,232.01 -517.27,566.25 -3533.39,713.5 -4732.76,476.87 -601.8,-118.75 -910.63,-294.29 -1401.78,-428.44 154.44,330.94 975.48,514.66 1348.76,596.78 1194.67,262.98 2350.85,215.99 3546.46,-27.56 1137.46,-231.66 564.94,-179.24 1060.03,-397.37 254.05,-111.83 221.25,-45.72 308.61,-218.42 -436.47,-477.09 -3277.47,-139.23 -4106.42,-268.9 159.55,-191.46 476.18,-204.25 810.25,-291.69 -182.42,6.41 -346.47,40.26 -529.69,73.09 -262.47,47.05 -366.83,40.36 -440.18,253.63l-0.02 0 0 -0.01z"/>
  <path class="fil4" d="M13170.64 7524.08c-110.86,-643.75 -218.69,-1254.68 -427.85,-1842.89 -367.64,-1034.05 404.95,-1365.12 874.04,-1108.51 642.71,351.58 1156.79,2852.43 -446.19,2951.42l0 -0.02zm-809.79 -2276.03c376.93,228.48 519.56,1784.68 591.65,2302.96 172.74,339.54 461.53,249.83 808,160.87 268.13,-136.14 452.13,-253.01 617.03,-489.99 93.53,-134.49 27.98,-118.24 178.35,-225.1l123.5 -416.15c-113.34,378.71 -712.88,1010.09 -1206.46,1011.06 430.5,-326.21 645.74,-252.32 847.01,-898.53 149.49,-480.05 102.64,-1751.57 -409.4,-2062.33 -542.48,-329.23 -1203.36,-403.84 -1377.25,332.24 -72.89,308.61 81.15,60.97 -172.41,284.96l0 0.02 -0.05 -0.03z"/>
  <path class="fil4" d="M1782.49 7769.21c-2108.06,-67.76 -596.07,-3722.51 397.92,-2695.22 199.39,206.02 84.07,636.15 7.74,890.33 -194.15,646.38 -282.71,1132.14 -405.66,1804.89l-0.02 0 0.02 0zm-839.89 -2747.98l164.19 -38.9 -391.72 815.47 -97.8 773.39c18.52,299.09 47.1,514.04 196.14,745.9 67.63,105.18 137.73,186.69 210.95,257.91l252.04 220.59c6.5,5.95 20.71,19.33 30.81,29.31 283.18,30.96 424.77,143.19 700.09,16.22 4.15,-10.7 4.91,-40.8 5.24,-34.06l54.37 -618.44c315.99,-1965.9 312.71,-1406.07 829.75,-1520.17 -92.27,-48.27 9.04,-7.96 -115.14,-17.19 -702.03,-52.13 -81.37,-298.87 -424.64,-694.07 -341.97,-393.64 -678.23,-136.27 -1106.3,-117.78 129.86,-222.73 404.95,-343.98 790.46,-268.13 418.72,82.33 375.11,222.53 524.65,564.85 330.45,-704.53 -1213.17,-1015.28 -1623.08,-114.85l0 -0.02 -0.01 -0.03z"/>
  <path class="fil2" d="M5618.49 10582.76c-323.47,-17.88 -1004.64,-83.21 -1219.26,-241.14 -312.22,19.27 -842.59,-166.04 -1141,-261.36l-759.49 -292.46c-174.26,-89.45 -117.29,-58.92 -197.96,-179.04l-411.73 83.92c83.92,307.29 389.7,250.87 882.99,404.27 317.86,98.83 625.87,219.57 953.87,332.02 635.72,217.94 1418.09,469.77 2159.35,460.78 -135.12,-241.25 -139.92,-134.06 -266.8,-307l0.02 0 0.01 0.01z"/>
  <path class="fil5" d="M12180.04 4430.12l-76.05 393.15c68.64,163.56 -14.57,114.53 190.15,213.23 103.68,-156.39 63.56,-23.89 72.18,-251.75 -159.19,-424.31 394.59,-658.93 805.44,-699.48 498.97,-49.31 1017.01,200.1 1045.03,635.67 79.83,59.2 22.72,-15.89 97.6,90.21 211.02,298.8 186.29,784.51 405.92,1058.86 8.91,-766.61 -357.72,-1458.01 -756.88,-1761.03 -691.88,-525.14 -1501.12,142.7 -1783.42,321.17l0 -0.02 0.03 -0.01z"/>
  <path class="fil0" d="M7030.93 13533.96c847.72,0.55 2134.48,-119.5 2751.16,-500.16 -2437.6,397.21 -1328.52,399.38 -3872.06,206.6 44.56,192.21 -38.83,139.72 164.45,220.39l956.43 73.13 0 0.02 0.02 0.03z"/>
  <path class="fil5" d="M942.62 5021.23c409.95,-900.43 1953.53,-589.67 1623.08,114.85 125.71,-26.52 88.62,100.36 188.15,-129.93 262.01,-606.09 -1011.68,-854.74 -1479.29,-599.2 -465.05,254.18 -815.61,975.31 -676.39,1248.52 120.67,-135.83 258.45,-473.55 344.44,-634.27l0 0 0.02 0.03z"/>
  <path class="fil0" d="M6719.57 1182.62c804.33,170.48 1634.02,-798.72 2082.42,-1047.53 -50.08,215.15 -50.28,156.1 -124.87,336.95 -74.46,180.67 -56.14,196.01 -19.11,296.01 212.24,45.92 494.75,-141.8 650.36,-242.22l-587.52 243.42c1.65,-460.44 240.01,-315.8 173.65,-769.26 -470.24,38.94 -942.68,814.28 -1861.05,990.34 -284.23,54.5 -211.7,-12.7 -313.85,192.3l0 0 -0.02 -0.01z"/>
  <path class="fil2" d="M1523.36 8391.34l238.85 -101.76c-4,-198.16 17.33,102.24 -15.34,-123.01 -395.8,-88.82 -473.4,-156.87 -792.18,-296.59 -567.28,-151.95 -583.3,-763.97 -571.77,-1458.21l-204.94 -5.81c-22.78,537.99 71.14,1058.09 358.54,1364.92 93.73,100.01 291.49,299.97 461.04,354.47 254.12,81.73 519.41,-35.43 525.78,266l0 0 0.02 -0.01z"/>
  <path class="fil5" d="M9625.24 10275.87l32.42 173.03c399.38,14.03 1055.6,-190 1431.22,-319.12 363.8,-125.09 1007.95,-307.05 1203.63,-574.53 -969.69,333.06 -1560.31,573.42 -2667.27,720.63l0 0 0 -0.02z"/>
  <path class="fil4" d="M954.69 7869.98c318.76,139.74 396.4,207.77 792.18,296.59 266.84,1.37 258.62,39.23 314.34,-165.31 -296.1,-117.64 -483.99,55.8 -753.99,-176.4 -269.43,-54.28 -384.15,-186.84 -556.78,-383.62 -202.64,-231.11 -181.8,-423.53 -318.14,-655.88 -14.98,546.37 267.28,874.43 522.4,1084.62l-0.02 0 0.01 0.02z"/>
  <path class="fil6" d="M12286.19 9405.37c-439.72,338.84 -1974.88,655.13 -2653.41,788.66l-368.55 87.99c9.88,4 24.25,11.27 29.64,12.31 5.53,1.04 24.31,8.62 31.56,9.44l299.82 -27.89c1106.94,-147.19 1697.57,-387.56 2667.27,-720.63 195.97,-83.85 268.61,-69.88 325.81,-243.07l-332.11 93.17 0 0 -0.03 0.02z"/>
  <path class="fil7" d="M12366.3 4784.72c110.21,-154.18 136.82,-567.44 863.16,-583.73 697.19,-15.63 645.54,483.07 987.31,519.9 -28.05,-435.54 -546.07,-684.99 -1045.03,-635.67 -410.83,40.55 -964.63,275.18 -805.44,699.48l-0.02 0.02 0.02 -0.01z"/>
  <path class="fil5" d="M4219.06 5460.94l158.66 -296.73c-480.11,-32.53 -986.6,-355.31 -1090.84,88.53 261.94,135.24 721.43,53.27 932.19,208.16l-0.01 0.03z"/>
  <path class="fil8" d="M4377.71 5164.22l-158.64 296.73 -2.34 44.2c-53.06,667.53 298.38,954.35 825.69,630.84l31.56 -198.25c-130.39,228.77 6.56,121.64 -211.48,187.81 -207.28,220.47 -708.81,-160.16 -471.41,-625.91l11.73 -57.26 113.68 -208.81c127.59,-224.77 147.1,-119.83 323.2,-255.41 -219.15,-157.14 -373,-4.15 -461.95,186.09l-0.05 0 0.01 -0.03z"/>
  <path class="fil9" d="M11137.32 6532.3l-146.7 -31.56c-80.83,-262.33 -328.9,-694.56 49.88,-832.22 72.24,-197.47 41.52,-69.13 -32.88,-160.59l-286.22 201.07c-218.04,1310.55 1229.26,1189.11 826.69,209.83l3.78 518.88c-139.39,82.87 -241.83,169.38 -414.57,94.64l0 -0.02 0.02 -0.03z"/>
  <path class="fil6" d="M8802.74 9062.17c-113.88,623.77 104.74,622.95 206.99,923.19 465,73.42 665.7,-22.92 657.76,-534.95l-79.83 13.06 -34.58 285.9c-390.83,526.19 -730.56,-260.68 -633.65,-530.46 134.75,-172.12 185.02,-98.63 200.17,-321.36 -100.98,14.3 -116.45,17.39 -192.01,63.18l-124.83 101.47 0 -0.02 -0.02 -0.01z"/>
  <path class="fil10" d="M10480.47 7239.24l104.65 -116.47c-55.51,-57.55 99.87,-66.04 -184.34,-60.02 -309.99,123.79 -213.43,1077.72 255.97,1148.11 480.4,-51.81 578.62,-265.51 431.23,-707.29 -8.71,181.87 39.51,379.78 -73.55,506.66 -370.21,415.89 -936.87,-418.34 -533.93,-770.96l0 -0.02 -0.03 -0.01z"/>
  <path class="fil6" d="M5580.73 10379.63l165.03 37.66c123.96,-146.9 242.71,-191.46 274.27,-404.27 -437.64,573.89 -668.13,177.29 -654.8,-80.47 16.09,-309.92 164.6,-345.57 166.3,-347.16 58.37,-202.09 138.48,-222.6 325.61,-309.92 -117.09,-98.77 -24.53,-46.35 -171.23,-89.99 -351.78,134.88 -475.54,573.49 -413.79,1008.14 197.53,136.89 65.33,93.24 308.61,186.02l0 0 0 -0.02z"/>
  <path class="fil11" d="M6873.99 7397.01l26.68 -208.65c-53.79,150.28 -5.24,84.47 -93.31,202.99 -43.92,138.42 -42.74,203.08 -179.1,271.66 -66.58,33.51 -67.41,47.45 -163.7,24.02 -173.87,-42.41 -111.08,-72.31 -139.88,-99.52 -110.79,-150.44 -119.83,-156.58 -58.52,-411.93 58.15,-242.03 81.44,-299.42 247.84,-387.16 106.5,-114.04 62.04,-50.63 131.57,-204.06 -691.81,55.54 -691.95,1349.58 -82.46,1188.77 220.32,-141.38 243.13,-237.47 310.89,-376.18l0 0.02 0 0.03z"/>
  <path class="fil12" d="M8093.89 6381.5c-121.29,379.05 -51.74,444.63 39.58,801.15 243.88,307.25 315.73,328.57 670.56,145.6l-8.45 -508.23 -25.35 364.07c-519.01,444.82 -757.3,-448.62 -515.06,-693.48 45.44,-65.26 62.79,-95.81 100.49,-170.48 -144.16,-13.06 -165.91,10.49 -261.77,61.33l-0.02 0 0.01 0.05z"/>
  <path class="fil13" d="M5891.19 5503.02c-488.41,968.23 291.07,1406.91 626.47,849.97 -66.58,41.64 -146.17,109.4 -206.51,127.37 -304.84,90.61 -276.3,-51.74 -277.94,-53.11 -434.1,-203.06 -81.29,-802.87 38.12,-900.07l241.87 -135.03c-208.36,-168.54 -302.64,-10.85 -422.03,110.86l0 0 0.02 0.03z"/>
  <path class="fil13" d="M9815.48 5121.68c73.42,211.83 216.68,738.14 671.24,488.14 202.09,-111.19 45.84,-16.58 113.4,-121.23 -167.63,50.9 -209.49,78.62 -411.25,54.08 -165.55,-142.02 -177.03,-184.43 -265.17,-444.95 49.73,-577.08 147.63,-263.09 245.05,-584.9 -357.3,15.47 -395.43,231.81 -353.31,608.87l0.03 -0.02z"/>
  <path class="fil13" d="M10831.28 9462.7c-347.16,118.32 -478.04,136.78 -610.64,-207.48 -123.98,-321.65 -93.4,-441.22 106.3,-609.67l67.28 -160.67c-403.93,39.87 -441.02,370.21 -299.42,776.29 94.08,269.88 271.38,469.57 586.09,344.52 238.36,-94.68 109.68,-75.54 150.44,-142.99l-0.02 0 -0.03 0z"/>
  <path class="fil14" d="M4419.97 8067.75c-50.61,209.69 -80.86,302.25 -259.64,342.26 -288.7,293.9 -881.49,-577.3 -8.84,-995.92 -421.75,-416.97 -1050.85,1225.5 13.94,1097.9 123.23,-95.23 263.66,-236.5 254.53,-444.18l-0.02 -0.02 0.03 -0.03z"/>
  <path class="fil12" d="M5704.71 7957.53l37.29 -134.9c-365.81,-170.33 -542.53,477.36 -506.5,880.6 190.15,258.67 539.88,476.38 753.28,63.21 -262.47,197.96 -350.05,204.17 -641.94,-48.85 -25.71,-363.19 60.97,-706.87 357.85,-760.06l0 0 0.03 -0.01z"/>
  <path class="fil6" d="M11697.58 8868.43c-161.76,-155.26 -283.26,-599.81 -44.67,-752.24 97.11,-138.64 2.74,28.09 88.62,-182.13 -331.33,53.59 -390.34,232.44 -325.72,589.67 116.91,647.13 447.16,550.2 667.29,529.84 93.02,-131.17 119.41,-131.43 163.56,-315.31 -11.19,12.36 -24.93,29.09 -32.34,38.05l-87.94 109.62c-157.36,162.88 -302.18,157.68 -428.8,-17.46l0 -0.02 -0.02 -0.03z"/>
  <path class="fil13" d="M5512.67 7357.27c-203.28,215.35 -87.17,170.11 -480.25,172.12 -349.86,-385.75 -206.51,-729.74 178.61,-995.59l69.9 -53c-30.13,-19.21 -183.68,-232.01 -415.61,176.47 -486,856.14 419.06,1269.47 647.35,699.97l-0.01 0.03z"/>
  <path class="fil12" d="M4701.71 9583.3l-64.93 92c-131.77,403.58 -747.46,241.14 -590.95,-391.07 80.18,-324.02 149.33,-292.44 276.77,-366.56l101.76 -68.47c6.34,-4.88 18.85,-19.33 28.05,-29.21 -372.71,-256.79 -603.75,494.33 -519.97,877.22 326.01,511.94 895.99,143.74 769.31,-113.88l0 -0.02 -0.03 -0.01z"/>
  <path class="fil7" d="M10115.9 7023.99l-104.36 -2.06 -270.4 32.49c-124.87,-136.58 -159.19,-147.19 -189.6,-383.27 -6.7,-11.54 -149.47,-144.36 -29.77,-387.96 77.84,-158.46 108.51,-71.01 221.8,-290.03 -306.89,53.3 -417.07,178.75 -375.89,543.37 45.72,404.95 220.59,677.65 589.39,598.02 168.41,-36.4 158.73,-110.31 158.86,-110.5l0 -0.07 -0.02 0z"/>
  <path class="fil7" d="M8271.95 5558.12c57.95,185.85 127.59,560.36 455.87,583.3 311.09,21.75 302.25,-135.03 331.82,-167.28 -240.23,86.41 -240.28,88.14 -479.08,52.71l-50.85 -144.65 -37.44 -86.9 -109.4 -314.63c42.46,-379.95 104.78,-162.66 265.78,-495.43 -363.02,75.43 -387.07,180.63 -376.71,572.88l0 0 0 0.01z"/>
  <path class="fil6" d="M9600.09 8359.65c-369.87,125.99 -506.7,140.85 -635.89,-248.24 -185.8,-559.41 138.99,-448.42 193.76,-716.62 -622.95,-29.7 -322.62,993.16 -42.35,1127.73 12.51,6.02 356.49,88.91 484.47,-162.88l0.01 0z"/>
  <path class="fil5" d="M4862.48 6125.53l-216.54 -57.75 22.8 -516.16 -277.67 -52.03c-237.39,465.75 264.15,846.39 471.41,625.91l0 0.02 0 0.01z"/>
  <path class="fil4" d="M3637.27 3430.24c-22.65,-196.04 -26.88,-176.89 -215.3,-243.08 -141.95,-49.88 -270.69,-101.27 -369.82,-146.15 -35.3,-292.39 -4.15,-334.52 151.75,-534.06 -117.35,60.87 -47.98,-4.49 -160.67,105.55 -507.06,494.94 177.54,726.96 594.03,817.73l0 0 0.02 0.02z"/>
  <path class="fil13" d="M3102.61 9291.55c-838.68,104.29 -409.46,-766.89 -209.84,-923.35 244.1,-191.33 -104.85,104.74 72.31,-45.24 94.28,-79.83 11.63,15.18 86.48,-100.49 -501.88,-83.65 -810.47,997.16 -258.93,1152.73 325.41,91.81 308.53,-81.71 309.99,-83.65l-0.02 0 0.02 0z"/>
  <path class="fil10" d="M4399.26 10341.62l-445.07 -140.47c-339.33,-79.83 -1155.09,-343 -1362.86,-520.45l-290.49 -71.92c80.66,120.12 23.69,89.6 197.96,179.04l759.49 292.46c298.41,95.32 828.8,280.64 1141,261.36l-0.02 0.02 -0.01 -0.04z"/>
  <path class="fil15" d="M14555.89 6996.79c-150.37,106.88 -84.82,90.61 -178.35,225.1 -164.87,236.98 -348.89,353.85 -617.03,489.99 634.71,-145.11 801.15,-320.15 1028,-883.63 -14.01,10.41 -30.52,25.62 -40.4,33.29l-192.23 135.24 0 0.02 0.02 0z"/>
  <path class="fil13" d="M3401.33 6941.75c-89.11,-238.15 -104.29,-323.86 -3.96,-588.5 123.9,-326.78 196.23,-207.55 390.05,-398.74 -0.88,-0.49 -61.13,-187.45 -305.72,15.05 -69.75,57.75 -141.34,184.17 -178.95,294.82 -36.11,105.93 -67.85,276.48 -62.86,390.19 15.34,353.09 146.9,283.18 161.42,287.17l-0.02 0 0.03 0.01z"/>
  <path class="fil16" d="M12990.36 7935.56c120.58,23.5 113.4,19.01 191.55,63.98l189.8 -48.07c85.44,-47.54 74.26,-52.16 161.95,-117.84 148.45,-111.21 -0.97,-36.76 226.82,-121.71 -346.47,88.98 -635.24,178.71 -808,-160.87l-135.03 46.13 172.9 338.4 0.02 0 0.01 -0.02z"/>
  <path class="fil17" d="M11848.02 7510.67c-123.01,-60.58 -2.54,79.3 -137.87,-94.68 -28.33,-36.49 -74.46,-146.9 -87.94,-202.6 -46.01,-189.54 1.57,-337.48 28.73,-498.34 -242.16,205.49 -313.1,1033.1 529.86,934.44 -106.86,-60.44 -231.88,-37.24 -332.79,-138.84l0 0 0 0.03z"/>
  <path class="fil13" d="M5618.49 10582.76l164.19 -23.96 -227.07 -66.79 -1156.37 -150.37c214.62,157.89 895.79,223.24 1219.26,241.14l0 0 -0.01 -0.03z"/>
  <path class="fil18" d="M6033.21 6427.23c-5.95,-13.53 -16.71,-48.27 -19.43,-39.87l-53.46 -120.27c-67.28,-227.8 7.18,-351.51 61.07,-574.6l278.55 -63.4 -228.63 -101.93c-119.43,97.17 -472.23,696.99 -38.12,900.07l0.02 0z"/>
  <path class="fil19" d="M10600.13 5488.59l-8.98 -108.8c-338.16,171.57 -477.48,-1.11 -521.02,-290.93l-146.42 8.84c88.14,260.53 99.6,302.93 265.17,444.95 201.73,24.53 243.59,-3.18 411.25,-54.08l0 0.02z"/>
  <path class="fil20" d="M2482.96 7994.68l105.33 11.05c43.39,-377.2 -246.91,-21.9 -182.71,-679.11l-0.13 -65.61c-46.01,49.24 -6.7,-117 -85.3,123.17 -30.3,92.71 -35.98,164.8 -24.67,260.59 20.31,171.76 121.36,255.99 187.45,349.9l0 0 0.03 0.02z"/>
  <path class="fil5" d="M617.28 6571.2l97.8 -773.39c-247.75,45.33 -248.73,629.29 -97.8,773.39z"/>
  <path class="fil21" d="M4402.8 5442.38c328.99,3.18 405.59,21.9 656.31,-117.16l-542.62 -91.66 -113.68 208.81 0 0 -0.01 0.01z"/>
  <path class="fil2" d="M6324.67 7587.5c28.82,27.2 -33.97,57.11 139.88,99.52 96.29,23.41 97.11,9.48 163.7,-24.02 136.34,-68.6 135.17,-133.27 179.1,-271.66l-179.79 -36.88c-148.03,248.85 -98.63,214.47 -302.89,233.05z"/>
  <path class="fil22" d="M14391.77 6763.96c157.56,-129.86 271.04,-456.4 124.58,-671.44 -104.78,106.44 -47.18,219.59 -124.58,671.44z"/>
  <path class="fil23" d="M5106.82 2494.34c259.51,-66.72 304.33,25.62 542.48,30.88 -55.51,-124.34 -8.06,-187.81 -249,-180.12 -164.6,5.24 -213.91,48.91 -293.5,149.25l0 0 0.02 0z"/>
  <path class="fil24" d="M10115.9 7023.99c272.12,-130.33 209.23,-367.58 93.86,-580.14 -3.93,136.07 24.18,173.09 11.94,265.92l-91.1 257.57c-4.78,14.45 -10.49,37.66 -14.74,56.62l0.02 0.02 0.03 0.02z"/>
  <path class="fil11" d="M8331 2964.8c-390.05,-328.06 -58.72,-158.31 -305.85,-279.79 -112.61,236.1 79.52,272.21 305.85,279.79z"/>
  <path class="fil12" d="M11650.95 6715.07l87.65 34.58c155.81,-227.31 205.91,-42.54 233.51,-297.17 -203.33,72.24 -234.45,47.54 -321.17,262.53l0 0.02 0.01 0.03z"/>
  <path class="fil25" d="M9059.62 5974.14c-221.32,-63.54 -176.21,56.49 -529.91,-91.94l50.85 144.62c238.75,35.45 238.85,33.7 479.08,-52.69l-0.02 0z"/>
  <path class="fil13" d="M9076.81 5854.38l-42.41 129.51c50.08,-33.51 240.5,69.75 141.17,-485.51l-98.77 356 0 0z"/>
  <path class="fil3" d="M7077.96 3727.61c466.1,85.15 318.42,-3.67 376.18,-53.79 -6.83,-3.11 -97.56,-163.85 -376.18,53.79z"/>
  <path class="fil26" d="M5834.68 3349.57l337.41 10.49c1.82,-106.37 22.8,-79.43 -4.06,-141.73 -61.62,-142.9 13.19,-28.33 -86.48,-118.52 -101.73,220.67 15.95,153.69 -246.86,249.78l0.02 0 -0.03 -0.02z"/>
  <path class="fil11" d="M2777.69 5479.37c192.98,-45.64 291.13,-111.96 218.14,-300.26 -173.71,91.03 -137.18,136.07 -218.14,300.26z"/>
  <path class="fil13" d="M10601.01 5382.6l-9.88 -2.83 8.98 108.8c24.74,-16.31 83.98,71.48 123.3,-175.57 16.44,-103.19 -9.52,-193.4 -25.35,-294.05l-97.02 363.65 0 -0.02 -0.03 0.02z"/>
  <path class="fil27" d="M9595.12 8283.53l4.97 76.12c93.02,-63.83 32.13,66.92 99.81,-90.28 28.24,-65.61 29.16,-80.95 30.1,-152.58 2.54,-185.89 -23.96,-187.88 -105.82,-261.56 58.44,185.31 52.76,264.19 -29.09,428.31l0.02 0 0.02 0z"/>
  <path class="fil12" d="M10831.28 9462.7c47.1,-21.42 90.61,53.53 128.76,-172.12 16.78,-98.92 -12.8,-197.14 -49.88,-296.74l-78.86 468.84 0 0.02 -0.02 0z"/>
  <polygon class="fil14" points="12103.99,4823.27 12180.04,4430.12 12026.7,4391.25 "/>
  <path class="fil28" d="M8955.94 2380.26c250.46,-1.11 150.57,41.33 274.49,-109.97 -157.56,-93.24 -168.05,-7.18 -274.49,109.97z"/>
  <path class="fil28" d="M12360.84 5248.09l-259.97 -79.01c88.53,120.96 -46.57,59.8 105.4,115.89 243.13,89.79 149.2,-33.7 154.57,-36.88z"/>
  <polygon class="fil15" points="8492.27,5795.31 8478.39,5545.21 8382.85,5480.7 "/>
  <path class="fil29" d="M3102.61 9291.55c111.08,27.69 87.65,53.79 87.65,-54.83l29.55 -125.8 -36.6 -7.45c-56.23,154.04 12.55,24.86 -80.61,188.08l0 0.02 0.01 -0.02z"/>
  <path class="fil30" d="M2430.88 7155.89l-25.44 105.13c123.79,-96.01 18.36,153.07 117.16,-136.89 -48.07,-15.34 8.84,-43.12 -91.74,31.76l0.02 0z"/>
  <path class="fil31" d="M9587.65 9463.46l79.83 -13.06 -73.09 -103.41c-1.6,2.34 -121.07,-91.71 -6.78,116.47l0.02 0 0.03 0z"/>
  <path class="fil29" d="M3401.33 6941.75c70.17,87.94 -74.66,16.64 92.82,93.6 107.28,49.24 54.08,17.55 143.19,30.19l-236.01 -123.79 0 0z"/>
 </g>
</svg>
