<?xml version="1.0" encoding="UTF-8"?>
<!DOCTYPE svg PUBLIC "-//W3C//DTD SVG 1.1//EN" "http://www.w3.org/Graphics/SVG/1.1/DTD/svg11.dtd">
<!-- Creator: CorelDRAW -->
<svg xmlns="http://www.w3.org/2000/svg" xml:space="preserve" width="572.34mm" height="140.838mm" version="1.1" style="shape-rendering:geometricPrecision; text-rendering:geometricPrecision; image-rendering:optimizeQuality; fill-rule:evenodd; clip-rule:evenodd"
viewBox="0 0 24885.88 6123.77"
 xmlns:xlink="http://www.w3.org/1999/xlink"
 xmlns:xodm="http://www.corel.com/coreldraw/odm/2003">
 <defs>
  <style type="text/css">
   <![CDATA[
    .fil4 {fill:#FEFEFE}
    .fil1 {fill:#FEFEFE}
    .fil3 {fill:#050505}
    .fil5 {fill:#060606}
    .fil8 {fill:#080703}
    .fil9 {fill:#090909}
    .fil7 {fill:#0C0A04}
    .fil15 {fill:#111111}
    .fil14 {fill:#120E05}
    .fil12 {fill:#151515}
    .fil13 {fill:#161107}
    .fil11 {fill:#1B1508}
    .fil18 {fill:#1B1609}
    .fil27 {fill:#1D1D1D}
    .fil21 {fill:#212121}
    .fil10 {fill:#231C0B}
    .fil29 {fill:#262626}
    .fil24 {fill:#292929}
    .fil28 {fill:#2B2518}
    .fil30 {fill:#3A2E12}
    .fil25 {fill:#503F19}
    .fil31 {fill:#59471B}
    .fil32 {fill:#675938}
    .fil16 {fill:#DFB44C}
    .fil26 {fill:#EDC052}
    .fil17 {fill:#F2C14A}
    .fil19 {fill:#F3C75C}
    .fil2 {fill:#FDCA4E}
    .fil6 {fill:#FDCB50}
    .fil22 {fill:#FECC52}
    .fil20 {fill:#FECD56}
    .fil23 {fill:#FED05E}
    .fil0 {fill:#FEFEFE}
   ]]>
  </style>
 </defs>
 <g id="Camada_x0020_1">
  <metadata id="CorelCorpID_0Corel-Layer"/>
  <g id="_1957591936368">
   <path class="fil0" d="M19636.3 772.67c112.92,126.74 120.34,-68.22 8.81,231.46 -79.48,213.57 -400.77,678.58 -462.15,976.72 -84.03,408.63 40.38,95.73 -222.42,622.24 -235.38,471.51 22.02,249.8 -110.24,584.27l281.52 139.3c240.92,-138.31 198.66,-193.73 478.51,-202.74l270.97 -7.6c230.24,-18.17 30.7,-79.74 279.87,18.81 -203.7,411.65 -88.83,238.89 -36.42,559.33 52.21,319.45 -90.86,427.18 15.03,815.43 152.37,558.38 -331.78,436.43 264.18,731.33 106.64,-269.75 -55.25,-124.4 138.36,-515.66l-140.75 -69.65c119.5,-302.28 -5.9,14.13 49.06,-290.73 2.59,-14.44 5.99,-28.15 8.78,-42.7 96.33,-499.4 12.68,-227.8 219.81,-463.74 -33.05,-251.47 -121.23,-521.37 -3.42,-819.4 168.27,2.07 418.93,147.28 608.01,-166.39l234.59 116.09 45.47 -327.95c37.99,-270.82 34.74,17.19 -187.71,-92.88 -152.51,-75.47 -15.29,-58.2 -188.14,-209.96 -129.23,101.08 -100.9,118.04 -139.3,281.52 -416.86,-194.83 -190.96,71.22 -538.88,-91.44 3.61,-298.11 228.2,-296.53 -58.55,-728.45 -188.59,-284 -262.73,-156.65 -388.85,98.21 -71.82,145.13 7.38,-18 -42.45,366.01 -1.74,13.13 -3.21,27.52 -4.81,40.67 -24.27,197.64 8.07,144.59 -113.36,389.97 -359.13,-141.96 -23.05,105.4 -468.71,-115.12 185.02,-373.9 84.77,-136.46 187.02,-245.08l45.16 -52.22c249.19,-324.28 5.09,-182.17 208.97,-594.18 105.34,-212.87 82.24,76.64 349.24,-354.03l349.74 -468.25c-64.97,-113.08 -53.45,-100.54 -147.83,-224.31 -130.36,-170.96 -311.01,-317.4 -574.32,-178.31 -152.65,80.66 -117.96,93.68 -214.81,289.41l0 0.03z"/>
   <path class="fil0" d="M11943.42 3098.87c-73.66,148.85 -144.85,512.16 -99.38,697.82 0.92,3.69 26.59,84.42 30.83,106.8 3.16,17.16 -27.48,138.04 57.39,293.19l462.45 468.92c35.42,17.53 513.27,60.34 684.79,-54.71 199.53,-133.76 108.23,-13.51 343.05,-488.04 171.56,-346.7 -129.09,-501.27 -3.36,-819.37l-469.22 -232.19 -139.3 281.52c300.39,181.06 153.15,319.38 167.41,842.11 -489.09,280.83 -394.54,5.71 -632.68,-137.86 149.2,-377.35 -135.13,-317.08 113.69,-819.9 100.88,-203.87 253.89,-24 443.6,-306.04 32.57,-48.38 86.71,-175.49 116.03,-234.74 -159.99,-79.17 -388.99,-245.26 -500.17,-58.13 -14.89,25.05 124.93,13.66 -140.02,114.01 -13.34,5.05 -57.97,16.22 -71.93,22.84l-363.17 323.75 -0.01 0.03z"/>
   <path class="fil0" d="M7984.24 2483.08c-245.35,407.03 14.45,-265.26 -465.33,704.3l-76.08 533.65 349.47 624.32c127.11,119.54 721.99,385.98 903.98,476.03 119.54,-198.38 133.55,-169.51 350.7,-118.55l394.7 -797.62c-130.23,-47.6 -199.52,-22.02 -332.52,56.63 -443.26,262.11 -326.63,610.13 -906.73,323.08 -77.68,-38.44 -289.05,-295.97 -274.86,-610.45l16.81 -240.87c18.31,-262.46 -32.17,224.92 4.19,-81.68 6.44,-54.14 -24.11,-119.96 112.36,-280.44 9.17,-10.86 20.41,-19.9 30.16,-29.98 347.95,-357.29 180.27,-67.47 666.24,-120.81 18.09,-2.01 93.54,-13.81 150.33,-17.56 145.32,-9.56 -36.57,-24.66 155.28,-3.05 53.33,-265.01 -136.37,-660.28 -697.98,-446.73 -177.52,67.51 -185.64,106.9 -380.7,29.76l-0.02 -0.01z"/>
   <path class="fil0" d="M11073.69 2259.6c-166.46,336.39 22.02,0.13 -89.48,577.29 -85.28,441.39 187.67,612 -319.31,525.52 -200.52,-34.25 -181.82,13.02 -359.31,-22.65 132.62,-335.46 -102.1,-109.17 64.66,-490.78 218.79,-500.55 383.85,-397.07 -233.49,-702.56 -184.81,373.47 -45.41,67.9 -74.46,572.18 -30.54,530.99 71.45,260.2 -200.75,810.27 237.93,304.21 304.28,145.34 251.24,774.75 -29.09,345.44 -150.4,698.45 106.67,862.64 61.16,-167.25 52.73,-449.92 60.61,-684.73 14.46,-429.6 -99.57,-298.87 97.58,-697.26l-94.32 -163.49c180.39,65.96 257.07,23.1 488.12,57.08 33.8,4.92 2.77,-31.4 167.79,33.85 -180.92,365.6 -1.66,181.66 -115.12,468.71l140.76 69.65c-149.89,379.15 123.35,-13.13 -138.32,515.68 426.32,210.96 -3.65,115 422.73,325.99l116.09 -234.59c-173.7,-104.73 -111.48,-59.16 -177.11,-213.68 -158.07,-372.32 24.07,-368.28 -9.93,-621.8 -34.91,-259.7 -105.49,7.67 -16.9,-424.07 51.52,-251.07 -37.85,-146.15 9.06,-628.26 1.3,-12.81 2.04,-27.41 3.24,-40.12 24.78,-263.82 31.29,-226.74 158.26,-483.32l-140.76 -69.65 116.11 -234.63c-97.26,12.78 -171.55,-7.42 -233.64,118.05l-0.02 -0.04z"/>
   <path class="fil0" d="M16200.54 2168.18l-162.54 328.46 140.76 69.65 -102.37 227.64c-5.65,12.8 -11.5,26.32 -16.76,38.34l-61.59 732.86c-1.97,13.45 -4.57,27.81 -6.46,41.23l-129.43 942.48c-46.3,256.55 -130.13,263.23 46.24,570.44 30.88,-62.4 37.28,-67.37 53.13,-135.14l17.82 -162.34c27.47,-188.52 60.5,-178.13 137.61,-359.07 124.64,-292.28 29.47,-110.57 61.77,-294.36 31.95,-181.7 84.78,-199.09 144.59,-361.5 101.33,-275.47 1.94,-55.34 20.31,-319.48l75.92 -416.36c14.67,-74.28 30.11,-98.8 40.21,-169.88 19.81,-138.86 6.88,22.64 1.74,-156.91 -5.44,-190.06 -156.31,156.65 114.35,-390.32 520.71,257.67 415.2,163.3 475.95,347.14 83.22,252 -118.61,6.57 64.87,212.57l-278.61 563.03c-278.55,-110.18 -96.31,41.4 -374.9,-68.7l-69.65 140.76 375.35 185.74c174.8,-100.33 93.35,5.28 209.96,-188.14l140.76 69.65c332.12,-671.17 236.64,-391.89 205.89,-772.94l-3.16 -77.1c2.77,-192.56 -81.12,91.28 27.02,-204.5 -365.78,-220.54 140.15,-47.46 -469.67,-349.23 -101.19,-50.07 -75.38,-21.5 -321.32,-25.86 -359.69,-6.43 -90.2,87.62 -357.8,-18.2l0.01 0.03z"/>
   <path class="fil0" d="M14445.16 2292.53l-234.63 -116.11c-73.78,157.9 -98.69,114.25 -35.44,285.47l107.56 159.04 -279.64 328.96c342.1,206.2 48.71,209 84.01,674.95 11.08,146.97 40,139.43 14.24,268.73 -31.56,158.44 -62.9,96.16 -108.45,388.28l-11.41 82.03c-2.55,14.05 -6.04,27.93 -8.87,42.04l-51.79 291.04c-21.34,148.79 -48.11,154.81 -49.77,290.3l234.64 116.11 69.65 -140.76 -140.76 -69.65 68.88 -257.72c38.36,-295.83 73.37,-212.53 159.51,-444.61 98.41,-265.11 -12.15,-89.49 58.15,-332.23 32.02,-110.73 143.53,-306.75 199.06,-418.98l-140.76 -69.65c137.17,-277.2 282.03,-767.07 253.41,-984.32 287.39,134.27 122.52,98.43 234.16,-0.99l187.71 92.88c-41.21,204.57 5.62,170.55 77.73,364.49 114.32,307.41 92.64,235.49 -50.64,525.05 -89.62,181.1 -282.53,93.86 -468.23,1.97 -87.13,186.41 -67.32,103.7 -69.19,257.77 12.86,1.47 38.58,-12.31 38.8,-0.87l392.18 4.21c274.43,-31.08 54.27,9.4 169.6,-76.19 204.56,-151.83 -67.05,-137.62 194.62,-117.7l116.1 -234.63c-67.65,-75.89 -113.38,-6.93 68.67,-374.84l-140.76 -69.65c44.28,-121.1 65.26,-98.31 -17.06,-267.76l-60.74 -96.69c-153.04,-243.93 123.45,182.43 -40.44,-64.51 -205.43,-309.53 -234.9,-181.65 -321.75,-179.44 -408.08,10.49 -354.45,-94.7 -498.39,144.05l0.05 -0.06z"/>
   <path class="fil0" d="M23347.88 3777.48c-473.24,956.35 -328.37,888.89 -793.32,658.81 -156.04,-77.22 -95.71,-152.21 -24.67,-304.24l-140.76 -69.65c53.31,-107.73 114.26,-206.64 139.67,-320.72 46.42,-208 -46.13,-33.11 46.62,-289.24 171.18,-472.52 359.85,-410.73 183.32,-608.97 13.45,-177.32 137.31,-9.4 -95.62,-173.01 -195.81,-137.53 -302.13,-18.63 -378.24,167.84 -97.4,238.37 -39.69,140.14 -47.4,259.19l-13.81 239.38c-1.41,13.04 -2.75,27.46 -4.57,40.59l-28.35 400.39c0.32,11.76 1.23,26.77 1.09,38.68 -0.2,12.24 -1.3,27.3 -2,39.72 -14.1,253.38 -151.82,675.72 337.05,863.01l253.53 38.88c178.59,-5.26 210.7,-34.48 350.32,-120.06 248.68,-152.34 117.81,48.42 382.58,-486.63 63.9,-129.13 -39.43,-54.98 18.08,-435.94 2.04,-13.47 4.2,-27.71 6.33,-41.22l36.8 -207.8c38.37,-241.5 125.25,-67.3 -18.16,-228.31l234.14 -0.95c-46.26,-352.23 -283.2,-182.63 -142.7,-537.92l-140.76 -69.65c-84.35,170.45 -92.8,149.17 -108.45,310.17 -32.11,330.85 82.55,107.69 -14.8,552.04 -88.14,402.04 90.31,30.67 -35.87,285.66l-0.07 -0.03z"/>
   <path class="fil0" d="M24255.79 2532.89c-75.55,152.67 76.3,271.27 48.02,452.65 -14.64,93.61 -49.48,140.39 -92.07,226.45 56.29,78.08 121.39,124.85 136.52,227.39 20.23,137.02 -39.56,87.36 -0.92,312.87 19.97,116.62 74.71,272.42 42.14,454.66 -19.31,108.19 -1.56,59.04 -55.85,175.19 335.43,214.27 -100.32,18.87 235.08,233.14 115.34,-233.08 76.52,-160.9 66.65,-374.18 -11.98,-261.05 46.92,-292.12 29.25,-596.01l18.88 -279.91c5.83,-39.81 11.34,-83.11 17.13,-123.01l5.97 -353.63c3.3,-143.44 37.69,-162.45 111.26,-311.12l-469.22 -232.19 -92.88 187.7 0.03 -0.01z"/>
   <path class="fil0" d="M24475.41 4685.88c-200.27,404.72 -170.23,272.9 -138.36,515.66 200.7,40.39 181.26,-23.04 374.4,-48.4l139.3 -281.52c91.98,-185.87 -19.08,-143.35 -78.3,-137.06 -134.77,14.45 30.63,113.47 -297.05,-48.68l-0 -0z"/>
   <path class="fil0" d="M23012.16 1859.07c-87.89,177.61 39.8,194.92 305.7,326.49l185.74 -375.34 -281.52 -139.31c-60.62,43.74 -170.59,108.68 -209.92,188.16l0 0z"/>
   <path class="fil0" d="M22520.23 1790.88l-92.88 187.7 375.34 185.74 162.54 -328.46 -234.59 -116.09c-108.12,-53.5 -156.91,-37.02 -210.41,71.1z"/>
   <path class="fil0" d="M9916.18 5425.04c160.04,32.23 102.75,51.54 210.41,-71.1 -121.27,-24.41 -142.43,-57.22 -210.41,71.1z"/>
  </g>
  <path class="fil1" d="M3456.64 3127.49c1.47,294.23 247.58,887.57 345.95,1167.92 66.16,188.55 79.6,238.98 239.02,316.65 -55.75,106.7 -21.97,218.3 58.42,287.59 170.87,111.41 1969.3,-418.34 2005.27,-652.08 19.85,-128.95 -67.09,-59.85 -84.47,-302.28 -19.25,-268.18 87.69,-55.09 82.38,-341.78 156.82,-46.66 236.65,-52.92 369.04,-132.95 96.13,-58.1 194.61,-140.2 252.71,-249.68 218.05,-411.22 28.81,-1242.08 -379.79,-1494.79 -338.81,-209.55 -563.55,27.68 -808.45,89.91 -125.22,-191.36 -39.19,-341.06 -138.53,-508.65l0.03 -0.01 -22.41 -72.21c0.76,-0.72 1.58,-1.45 2.29,-2.16l221.4 -92.11c-4.16,-1.02 -13.78,-10.63 -16.28,-4.71l-68.79 -2.16c-3.21,0.93 -88.91,44.76 -107.57,52.92 -13.21,5.78 -26.73,11.67 -40.52,17.64 -31.72,-57.48 -51.29,-117.17 -55.75,-179.62l-0.03 -0.09c-50.95,-171.6 -192.29,-259.7 -420.88,-220.18 -498.8,86.19 -675.22,-222.71 -1164.61,156.7 -320.85,248.68 -121.2,99.23 -392.25,166.11 -110.42,27.22 -31.15,38.13 -151.11,56.41 -191.58,-105.38 -293.56,-341.75 -635.12,-344.15 -305.25,-2.16 -514.89,200.4 -783.48,-40.82 -0.81,6.78 -1.68,12.83 -2.57,18.26 -142.85,29.63 -260.56,172.41 -370.15,351.71l-5.1 224.59 -79.12 121.5c-14.92,16.96 -26.33,34.97 -34.91,53.6l-0.03 0.04 0 0c-86.51,188.17 111.17,439.18 -198.81,298.45 -517.92,-235.11 -831.02,101.64 -988.52,613.09 -183.49,595.71 -92.11,1275.8 552.76,1278.52 -9.47,200.26 -30.28,112.7 75.78,205.14 -46.31,125.36 -20.97,148.77 9.57,264.59 -44.81,55.69 -19.01,14.28 -40.85,40.54 -28.94,34.78 -7.94,-21.34 -43.44,64.72 -116.79,283.12 518.21,408.57 802.33,498.7 360.25,114.29 1595.33,586.56 1321.56,-48.28 173.61,-144.98 173.65,-55.57 269.21,-336.44 148.51,-436.42 340.6,-1008.68 392.41,-1462.76 2.27,-5.71 4.45,-11.64 6.54,-17.74l26.89 160.31zm2502.76 276.98c-48.52,-228.02 -73.17,-446.51 -145.56,-684.06 -39.45,-114.77 -88.85,-212.09 -97.54,-317.87 -8.78,-106.86 10.24,-243.97 126.18,-328.79 40.66,-29.75 93.57,-42.62 143.87,-46.44 78.85,-6 171.79,27.35 226.38,80.46 67.49,65.65 95.38,115.75 141.89,232.38 75.74,189.88 119.78,521.59 67.46,717.68 -34.2,128.18 -116.16,252.23 -242.98,302.96 -59.3,23.72 -125.78,38.29 -198.94,42.76l-20.76 0.93zm-5152.44 110.36c48.52,-228.02 73.17,-446.51 145.56,-684.06 54.86,-159.6 100.53,-315.4 79.14,-443.59 -45.07,-177.91 -192.42,-200.92 -314.5,-154.06 -119.09,45.71 -234.3,218.64 -286.93,330.39 -83.93,178.2 -129.3,407.29 -85.96,604.66 28.45,129.59 116.16,252.22 242.98,302.96 59.3,23.72 125.78,38.29 198.94,42.76l20.76 0.93z"/>
  <path class="fil2" d="M2098.06 4377.84l-92.17 -5.06c-69.76,-111.57 -57.66,-365.18 135.73,-347.12 67.2,113.89 43.13,213.98 -14.19,310.56 57.32,116.57 -200.58,283.19 -348.09,51.53 -37.91,-173.24 66.63,-513.11 235.27,-396.92 -4.16,4.47 -9.81,11.01 -12.69,13.22l-46.04 30.97c-57.66,33.53 -88.95,19.25 -125.23,165.86 -70.82,286.06 207.77,359.56 267.39,176.95l0 0zm-641.16 -255.37l-13.37 56.92c0,49.16 10.59,37.34 -39.66,24.81 42.16,-73.85 11.03,-15.41 36.47,-85.1 -69.63,-68.44 -73.88,-311.34 100.45,-341.9 90.39,108.76 20.82,248.02 -29.97,341.66 -34.08,-96.51 27.15,111.92 -10.88,-60.72 -7.5,-34 -4.82,-26.9 -12.66,-44.57l-30.38 108.91 0 -0.01zm1124.35 -521.89c132.44,-15.56 148.92,58.22 119.85,199.57 -20.65,100.6 -53.23,146.42 -153.98,158.14 -82.35,-117.56 -26.47,-252.2 34.13,-357.71zm-1177.39 603.62c-0.66,0.88 6.97,79.38 -140.26,37.85 -249.55,-70.38 -109.92,-559.42 117.16,-521.58 -33.88,52.35 3.53,9.35 -39.13,45.47 -80.16,67.86 77.72,-66.1 -32.72,20.47 -90.32,70.8 -284.53,464.98 94.94,417.79l0.01 0zm1177.39 -603.62c-134.33,24.07 -173.55,179.58 -161.92,343.91 132.08,114.48 171.71,111.66 290.46,22.09 -96.57,186.96 -254.81,88.44 -340.84,-28.6 -16.31,-182.46 63.66,-475.51 229.18,-398.45l-16.87 61.04 0 0zm-698.79 204.74c-76.17,-115.85 -32.16,-291.99 108.14,-323.18 66.94,93.84 58.32,93.6 9.35,168.33 4.13,93.97 -59.41,157.88 -115.17,200.98 -481.8,57.76 -197.14,-685.44 -6.31,-496.77 -394.85,189.42 -126.64,583.62 4,450.63l0 0.01zm478.6 -432.44c-167.95,-59.44 -143.29,-355.1 86.83,-362.35 68.92,146.49 58.35,298.88 -86.83,362.35zm-822.04 -231.9l106.79 56.01c-40.32,-5.72 -16.25,8.62 -64.79,-13.66 -75.78,-34.82 -10.25,-2.56 -42,-42.35l0 0zm159.11 58.51c-20.25,-73.26 -34.75,-154.51 -3.13,-245.18 31.88,-91.29 43.75,-105.73 136.89,-121.16 84.97,116.07 71.82,374.04 -133.76,366.35l0 -0.01zm796.23 129.5c-103.28,257.68 -512.8,70.67 -292.9,-316.72 104.95,-184.84 174.42,-88.54 188.05,-79.86l-31.62 23.98c-174.27,120.29 -239.11,275.93 -80.82,450.48 177.86,-0.91 125.32,19.56 217.3,-77.88zm-955.34 -188.02c-6.56,-1.81 -66.1,29.82 -73.04,-129.94 -2.25,-51.44 12.09,-128.61 28.44,-176.55 17.04,-50.07 49.41,-107.26 80.97,-133.4 110.66,-91.63 137.92,-7.03 138.33,-6.81 -87.69,86.5 -120.42,32.56 -176.49,180.42 -45.42,119.72 -38.53,158.51 1.78,266.28l0.01 -0zm756.83 -454.29l-14.28 89.7c-238.58,146.38 -397.6,16.6 -373.6,-285.44l-367.23 6.91 -122.92 196.26c-251.67,2.03 -329.03,-309.84 -317.9,543.74 45.5,-33.88 19.75,-21.31 41.5,-14.37 -44.69,131.2 3,18.5 -53.01,61.94l0.06 29.69c125.64,-16.97 107.19,-98.41 213.46,-42.07 115.26,77.6 64.38,352.84 -130.79,349.35l-47.66 -5 -73.85 14.81c29.07,131.88 58.63,135.04 -50.97,239.21 -416.07,395.47 225.96,282.71 454.88,512.51l-281.03 -3.65c94.01,80.29 463.1,199.37 616.66,235.49l201.38 63.56 523.23 68.04 11.34 -50.84c-110.08,-41.98 -50.26,-22.22 -139.64,-84.16 -27.94,-196.67 28.06,-395.13 187.23,-456.16 66.38,19.76 24.51,-3.97 77.48,40.72 55.31,76 66.98,135.7 36.38,250.92 -28.85,108.72 -55.22,146.24 -165.17,148.08 -32.35,-76.51 -34.19,-157.17 -18.54,-258.78 -0.79,0.72 -67.97,16.85 -75.26,157.08 -6.03,116.63 98.26,296.08 296.28,36.41 -14.28,96.29 -68,116.45 -124.1,182.92 153.67,-36.12 163.98,-171.08 231.42,-306.37 26.04,-52.19 67.91,-120.67 88.73,-176.24 125.23,-333.81 -259.83,-84.79 85.76,-548.17 143.35,-192.23 241.11,-259.91 104.6,-335.82 -30.66,62.76 -40.98,106.22 -140.67,170.21 -275.77,72.75 -275.7,-512.77 37.31,-537.89 -31.47,69.41 -11.34,40.72 -59.53,92.33 76.51,46.29 65.23,74.41 72.04,190.55 130.51,-200.3 237.58,-360.87 247.46,-621.93 -180.77,-51.39 -198.46,-61.19 -350.28,27.59 -13.82,165.3 -20.63,224.11 -186.77,240.37 0.75,0.62 -12.16,65.04 125.76,24.03 27.31,-8.13 63.31,-38.79 93.44,-57.63 -151.77,251.99 -504.46,53.51 -283.46,-384.59l-358.59 -65.57c114.86,102.52 18.04,86.94 -11.19,262.28l0.04 -0.02z"/>
  <path class="fil2" d="M4900.9 4281.63l35.68 -212.14c16.78,45.07 30.16,89.51 22.57,134.27 -17.26,102.1 -36.94,68.19 -58.26,77.88l0 -0.01zm0 0c-18.44,30.5 39.79,21.84 -68.07,64.7 -142.38,56.57 -222.61,-33.78 -265.18,-155.89 -64.07,-183.74 -47.28,-333.21 135.48,-351.25 174.79,49.5 176.42,290.59 125.45,415.69 -145.36,-38.88 -165.08,-198.2 -155.89,-343 -90.35,76.22 -104.2,130.33 -48.1,275.87 60,155.77 119.23,147.42 276.31,93.88l0.01 0zm391.97 -268.89c57.29,79.26 122.82,81.61 194.03,7.91l39.79 -49.6c3.34,-4.06 9.57,-11.63 14.63,-17.22 -19.97,83.19 -31.9,83.32 -74.01,142.67 -99.6,9.22 -249.02,53.06 -301.93,-239.75 -29.22,-161.64 -2.53,-242.56 147.39,-266.81 -38.85,95.14 3.84,19.68 -40.1,82.41 67.11,29.03 90.88,59.53 102.76,163.23 12.22,107.07 -0.71,156.42 -82.54,177.15l-0 0zm-938.14 -458.44c37.03,33.35 49.03,34.25 47.88,118.35 -0.44,32.41 -0.84,39.35 -13.63,69.04 -30.62,71.13 -3.07,11.97 -45.15,40.85l-2.25 -34.44c-96.24,1.56 -123.36,-27.16 -144.39,-139.33 -21.69,-115.63 -6.03,-130.04 42.6,-195.14 98.19,28.01 89.1,32.07 114.95,140.67l-0.01 -0zm-10.9 228.24c-57.91,113.91 -213.55,76.42 -219.21,73.7 -126.82,-60.88 -262.72,-523.71 19.16,-510.27 -24.78,121.36 -171.73,71.13 -87.67,324.24 58.45,176.05 120.36,169.33 287.72,112.32zm445.69 -559.64c78.14,41.85 32.98,-15.47 83.57,83.54 44.66,87.45 83.34,244.52 1.75,333.28 -84.86,-15.19 -88.11,-37.44 -119.04,-138.17 -29.31,-95.41 -29.31,-129.16 -13.63,-225.96 -182.33,159.54 74.07,537.02 241.59,348.84 51.16,-57.41 29.35,-146.95 33.29,-229.24 66.69,199.89 22.25,296.59 -195.12,320.02 -212.4,-31.85 -256.09,-463.48 -115.82,-519.48 128.61,-2.72 58.29,1.13 83.41,27.15l0 0.01zm-212.3 -44.69c1.9,-8.6 4.51,-19.1 6.66,-25.62l41.23 -116.54c5.54,-42 -7.19,-58.76 -5.4,-120.32 52.19,96.17 80.66,203.52 -42.47,262.5l-0.01 -0.01zm734.22 -124.14c61.01,79.89 115.19,179.49 117.42,306.69l-67.91 37.66c45.66,45.98 102.23,35.48 150.58,62.82 -381.41,44.63 -349.31,-329.85 -239.74,-422.82 39.26,-97.29 53.32,-86.1 145.32,-118.79 -12.51,115.19 -35.15,31.59 -105.66,134.46l0 -0.01zm-989.6 -35.53l41.56 -192.18c165.61,31.09 189.2,173.42 166.58,350.9l47.22 0.93c-0.06,0.1 4.31,33.53 -71.88,50 -166.85,36.03 -245.99,-87.36 -266.68,-270.59 -18.63,-164.99 31.22,-221.74 170.08,-245.87 -51.26,99.11 -65.14,59.53 -100.36,131.23 -54.16,110.22 10.44,170.34 13.47,175.55l0 0.02zm717.53 -62.82c78.16,33.82 124.51,-5.31 187.58,-42.82l-1.72 -234.78c182.14,443.1 -472.74,498.05 -374.06,-94.94l129.51 -90.98c33.66,41.38 47.57,-16.69 14.88,72.66 68.66,15.37 18.41,-23.24 68.97,45.03 67.62,91.38 60.66,216.96 39.75,317l-64.92 28.81 0 0.01zm-242.68 -520.2l43.9 -164.54c7.16,45.54 18.91,86.35 11.47,133.05 -17.78,111.79 -44.59,72.07 -55.79,79.44 -30.57,47.35 40.12,4.53 -51.31,54.85 -205.68,113.13 -270.5,-125.02 -303.72,-220.87l-462.73 143.07c54.19,70.1 40.12,36.23 129.29,71.29l-0.78 117.16 44.69 -161.08c44.94,251.24 -41.22,204.52 -63.88,219.68l11.41 -4.4c-13.37,14.59 -9.37,85.54 -150.14,75.69 -148.55,-10.37 -180.05,-179.83 -206.27,-263.93l-164.61 44.23c-39.88,118.88 -42.42,-114.35 24.97,37.75 21.22,47.88 37,-28.78 3.97,46 -35.7,80.79 -33.88,-14.32 -77.1,111.13 68.79,92.6 31.63,82.88 132.2,133.45 43.37,-23.01 53.23,-33.66 118.45,-27.75 -17.06,33.78 -24.91,47.59 -45.47,77.13l163.58 -2.5 80.95 151.54 3.82 229.96c-160.55,82.79 -193.05,73.13 -303.41,-65.89 -12.87,21 -20.12,2.87 -12.91,71.38 11.69,110.82 257.86,397.85 262.02,431.32 -41.41,185.45 -117.56,185.7 53.73,347.72l56.48 -45.91c34.18,-20.72 41.19,-22.13 86.88,-28.6 -6.85,100.78 -29.6,67.53 -90.58,145.41 -43.85,122.08 109.88,478.11 286.72,240.02 -155.86,-11.91 -210.46,-248.42 -109.22,-362.7 105.2,14.41 123.36,56.28 127.95,180.64l33.07 46.79c3.6,231.68 -87.23,275.28 -297.62,242.05 3.69,5.91 10.06,7.6 11.69,17.35 2.03,12.31 17.75,28.67 20.82,34.29 11.87,21.84 4.34,-3.07 24.28,50.47 32.82,-6.59 106.08,-32.66 122.82,-35.13 150.94,-22.1 71.2,-31.69 102.29,27.44 307.02,-60.41 1001.65,-203.52 1200.6,-356.85l-265.31 59.63c34.75,-251.18 438.51,-101.95 565.3,-357.5l-214.99 6.19c225.17,-260.58 4.09,-223.77 -111.7,-423 11.84,-186.96 105.82,-73.85 44.32,-272.93 -102.17,-330.81 60,-577.24 -125.26,-799.35l-208.17 94.23c-37.07,-123.26 -4.94,-105.64 -3.22,-216.74 1.88,-120.74 -15.43,-73.53 -71.57,-154.71 112.32,-56.44 120.67,-16.47 184.36,-105.86 -78.5,-43.79 -78.29,-14.53 -311.97,60.66 -107.26,34.5 -210.62,65.63 -318.56,104.03 51.09,104.51 100.16,3.84 74.25,185.15l-0.01 0.02z"/>
  <path class="fil3" d="M1862.85 2006.18c-52.5,3.34 -41.87,-11.84 -41.87,35.75 181.82,17.6 563.18,154.54 773.97,207.96 252.86,64.06 550.37,138.54 821.91,162.83 6.94,258.08 -184.64,966.64 -251.89,1245.39l-252.46 857.24c-76.57,193.64 -123.2,142.67 -175.32,221.05 -116.95,175.92 262.56,492.11 -1045.47,107.94 -204.93,-60.19 -384.41,-120.76 -580.05,-186.52 -260.11,-87.45 -421.79,-77 -381.63,-375.28 77.97,25.35 18.63,19.63 65.41,28.85l49.45 0.4c3.03,-0.17 11.56,-1.03 16.71,-3.44l-111.58 -96.41c-3.43,-170.79 66.01,-309.96 65.54,-394.95 -42.57,58.29 -52.7,67.82 -127.98,48.29l1.72 -68.41c-2.87,-136.39 -122.92,-83.38 -237.9,-120.36 -76.73,-24.65 -166.21,-115.13 -208.61,-160.39 -130.04,-138.82 -172.55,-374.16 -162.23,-617.59 26.98,-357.6 163.24,-732.19 347.2,-920.46 284.25,-290.9 651.77,-35.06 952.49,81.54l14.47 176.2c78.94,-118.48 30.71,-177.2 -35.04,-252.52l105.95 -91.85c-298.34,-97.48 -96.26,-259.31 -158.11,-377.97 -169.35,187.96 106.45,509.39 -235.49,354.15 -517.92,-235.11 -831.02,101.64 -988.52,613.09 -183.49,595.71 -92.11,1275.8 552.76,1278.52 -9.47,200.26 -30.28,112.7 75.78,205.14 -46.31,125.36 -20.97,148.77 9.57,264.59 -44.81,55.69 -19.01,14.28 -40.85,40.54 -28.94,34.78 -7.94,-21.34 -43.44,64.72 -116.79,283.12 518.21,408.57 802.33,498.7 360.25,114.29 1595.33,586.56 1321.56,-48.28 173.61,-144.98 173.65,-55.57 269.21,-336.44 148.51,-436.42 340.6,-1008.68 392.41,-1462.76 40.94,-102.88 51.38,-270.9 81.79,-391.28 48.01,-189.86 30.15,-45.16 90.41,-146.82 19.81,-33.38 19.69,-59.16 30.66,-99.11 27.41,-99.81 -18.57,43.54 12,-44.47 46.2,-133.01 256.93,-108.85 583.71,-210.02l554.24 -199.46c-364.38,52.29 -702.16,209.49 -1125.6,254.03 25.62,-111.35 15.1,-86.54 93.22,-131.88 -2.54,-7.69 -9.94,-25.53 -11.76,-21.26l-21.16 -41.07c-77.92,-202.07 200.4,-140.23 790.72,-347.74 181.86,-63.92 775.41,-271.62 876.65,-372.85l221.4 -92.11c-4.16,-1.02 -13.78,-10.63 -16.28,-4.71l-68.79 -2.16c-3.21,0.93 -88.91,44.76 -107.57,52.92 -438.19,191.83 -1204.77,491.77 -1642.46,524.92 4.18,-356.44 -216.74,-336.37 -473.54,-492.51 313.92,-148.14 35.44,94.79 471.13,-220.8 564.15,-408.61 646.15,-16.63 1114.94,-129.36 258.46,-62.13 342.32,80.22 448.32,222.71 -32.19,-215.02 -178.86,-331.59 -435.57,-287.21 -498.8,86.19 -675.22,-222.71 -1164.61,156.7 -320.85,248.68 -121.2,99.23 -392.25,166.11 -110.42,27.22 -31.15,38.13 -151.11,56.41 -191.58,-105.38 -293.56,-341.75 -635.12,-344.15 -305.25,-2.16 -514.89,200.4 -783.48,-40.82 -13.53,113.14 -42.53,27.9 43.1,93.44 240.93,184.45 773.07,-119.7 1043.5,97.35 55.6,44.63 57.32,62.16 77.85,81.66 29.19,27.78 12.13,11.74 42.66,34.59 191.76,143.55 60.32,143.3 241.83,179.85 205.21,41.35 94.04,34.66 240.18,104.58 114.04,54.53 166.43,17.59 201.99,145.28 42.53,152.79 -9.66,435.14 -200.4,430.92 -367.22,-8.13 -1260.99,-307.15 -1651.02,-394.39 4.53,5.63 12.44,6.03 15.28,15.41 2.75,9.22 11.69,11.81 15.65,14.53 82.17,56.63 274.4,97.01 379.44,128.1 501.48,148.35 867.76,225.34 1382.9,335.29l-57.78 287.3c-402.38,45.5 -1294.83,-254.34 -1675.1,-347.22l0.06 -0.03z"/>
  <path class="fil3" d="M6691.44 3089.62c-102.63,254.96 -177.95,334.16 -465.14,399.82 -103.07,38.44 -35.46,4.75 -102.63,55.07 -39.69,29.71 -34.62,31.82 -73.28,53.32l-60.72 121.42 -25.16 -99.67c-35.35,-20.34 -32.1,-18.31 -86.67,-28.94 11.47,146.82 69.72,86.35 85.6,352.22 13.28,222.29 -108.42,78.67 -131.88,254.05 62.07,-21.53 105.64,-53.03 158.64,-78.73 48.54,92.78 32.98,24.12 71.13,116.51 -181.45,163.2 -675.69,340.56 -953.4,413.04 -182.77,47.66 -371.1,90.67 -557.05,128.07 -451.61,90.79 -457.73,70.63 -417.39,-155.58 -19.94,-53.54 -12.41,-28.63 -24.28,-50.47 -3.07,-5.63 -18.79,-21.97 -20.82,-34.29 -1.63,-9.75 -8,-11.44 -11.69,-17.35 -168.24,-50.91 -275.56,-494.42 -345.84,-706.06 -75.97,-228.81 -149.39,-625.18 -231.99,-824.79 -5.75,6.5 -21.18,-30.88 -36.94,69.63 -49.29,257.08 233.14,933.74 340.28,1239.08 66.16,188.55 79.6,238.98 239.02,316.65 -55.75,106.7 -21.97,218.3 58.42,287.59 170.87,111.41 1969.3,-418.34 2005.27,-652.08 19.85,-128.95 -67.09,-59.85 -84.47,-302.28 -19.25,-268.18 87.69,-55.09 82.38,-341.78 156.82,-46.66 236.65,-52.92 369.04,-132.95 96.13,-58.1 194.61,-140.2 252.71,-249.68 218.05,-411.22 28.81,-1242.08 -379.79,-1494.79 -338.81,-209.55 -563.55,27.68 -808.45,89.91 -128.63,-196.58 -34.31,-349.19 -147.04,-522.39 -59.29,13.18 -10,-12.29 -42.91,24.12 65.88,230.52 88.54,250.58 -46.07,387.92 34.53,38.82 97.86,47.13 130.92,88.38 -56.13,138.54 -97.45,47.04 -98.72,209.77 110.64,-132.26 45.38,-88.88 241.86,-145.17 187.43,-53.66 485.33,-341.34 847.51,2.69 132.01,125.42 214.8,301.56 269.24,523.1 87.23,355.01 35.9,390.39 0.31,704.63l0.02 0.01z"/>
  <path class="fil4" d="M2865.03 5287.41c225.61,178.42 1481.76,-61.1 1871.76,104.98 -234.05,256.21 -1598.77,322.84 -2141.45,215.77 -272.3,-53.73 -412.04,-133.16 -634.27,-193.86 69.88,149.74 441.38,232.87 610.28,270.03 540.56,118.99 1063.7,97.73 1604.68,-12.47 514.67,-104.82 255.62,-81.1 479.64,-179.8 114.95,-50.6 100.11,-20.69 139.64,-98.83 -197.49,-215.87 -1482.97,-63 -1858.05,-121.67 72.19,-86.63 215.46,-92.42 366.62,-131.98 -82.54,2.9 -156.77,18.22 -239.67,33.07 -118.76,21.29 -165.98,18.26 -199.17,114.76l-0.01 0z"/>
  <path class="fil5" d="M5959.4 3404.46c-50.16,-291.28 -98.95,-567.71 -193.59,-833.86 -166.35,-467.88 183.23,-617.68 395.48,-501.57 290.81,159.08 523.42,1290.65 -201.89,1335.44l0 -0.01zm-366.41 -1029.85c170.55,103.38 235.09,807.52 267.71,1042.03 78.16,153.63 208.83,113.04 365.6,72.79 121.32,-61.6 204.58,-114.48 279.19,-221.71 42.32,-60.85 12.66,-53.5 80.7,-101.85l55.88 -188.3c-51.28,171.36 -322.56,457.04 -545.89,457.48 194.79,-147.6 292.18,-114.17 383.25,-406.56 67.64,-217.21 46.44,-792.54 -185.24,-933.15 -245.46,-148.97 -544.49,-182.73 -623.17,150.33 -32.98,139.64 36.72,27.59 -78.01,128.94l-0 0.01z"/>
  <path class="fil5" d="M806.56 3515.37c-953.84,-30.66 -269.71,-1684.34 180.05,-1219.52 90.22,93.22 38.04,287.84 3.5,402.85 -87.85,292.47 -127.92,512.26 -183.55,816.67l-0.01 0zm-380.03 -1243.39l74.29 -17.6 -177.24 368.98 -44.25 349.94c8.38,135.33 21.31,232.59 88.75,337.5 30.6,47.59 62.32,84.47 95.45,116.7l114.04 99.81c2.94,2.69 9.37,8.75 13.94,13.26 128.13,14.01 192.2,64.79 316.77,7.34 1.88,-4.84 2.22,-18.46 2.37,-15.41l24.6 -279.83c142.98,-889.52 141.49,-636.21 375.44,-687.84 -41.75,-21.84 4.09,-3.6 -52.1,-7.78 -317.65,-23.59 -36.82,-135.23 -192.14,-314.05 -154.73,-178.11 -306.88,-61.66 -500.57,-53.29 58.76,-100.78 183.23,-155.64 357.66,-121.32 189.46,37.25 169.73,100.69 237.39,255.58 149.52,-318.78 -548.93,-459.39 -734.4,-51.97l0 -0.01z"/>
  <path class="fil2" d="M2542.25 4788.43c-146.36,-8.09 -454.57,-37.65 -551.68,-109.11 -141.27,8.72 -381.25,-75.13 -516.27,-118.26l-343.65 -132.33c-78.85,-40.47 -53.07,-26.66 -89.57,-81.01l-186.3 37.97c37.97,139.04 176.33,113.51 399.53,182.92 143.82,44.72 283.19,99.35 431.6,150.23 287.65,98.61 641.65,212.56 977.05,208.49 -61.14,-109.16 -63.31,-60.66 -120.72,-138.91l0.01 -0z"/>
  <path class="fil6" d="M5511.18 2004.52l-34.41 177.89c31.06,74.01 -6.59,51.82 86.04,96.48 46.91,-70.76 28.76,-10.81 32.66,-113.91 -72.03,-191.99 178.54,-298.15 364.44,-316.5 225.77,-22.31 460.17,90.54 472.85,287.62 36.12,26.79 10.28,-7.19 44.16,40.82 95.48,135.2 84.29,354.97 183.67,479.11 4.03,-346.87 -161.86,-659.71 -342.47,-796.82 -313.06,-237.61 -679.22,64.57 -806.95,145.32l0 -0.01z"/>
  <path class="fil4" d="M3181.34 6123.77c383.57,0.25 965.8,-54.07 1244.83,-226.31 -1102.95,179.73 -601.12,180.71 -1752.01,93.48 20.16,86.97 -17.57,63.22 74.41,99.72l432.76 33.09 0 0.01z"/>
  <path class="fil6" d="M426.54 2271.98c185.49,-407.42 883.92,-266.81 734.4,51.97 56.88,-12 40.1,45.41 85.13,-58.79 118.55,-274.24 -457.76,-386.75 -669.34,-271.12 -210.42,115.01 -369.04,441.3 -306.05,564.92 54.6,-61.46 116.94,-214.27 155.85,-286.99l0 0z"/>
  <path class="fil4" d="M3040.46 535.11c363.94,77.14 739.35,-361.4 942.24,-473.98 -22.66,97.35 -22.75,70.63 -56.5,152.46 -33.69,81.75 -25.4,88.69 -8.65,133.94 96.03,20.78 223.86,-64.16 294.27,-109.6l-265.84 110.14c0.75,-208.34 108.6,-142.89 78.57,-348.07 -212.77,17.62 -426.54,368.44 -842.08,448.1 -128.61,24.66 -95.79,-5.75 -142.01,87.01l0 -0z"/>
  <path class="fil2" d="M689.31 3796.87l108.07 -46.04c-1.81,-89.66 7.84,46.26 -6.94,-55.66 -179.09,-40.19 -214.2,-70.98 -358.44,-134.2 -256.68,-68.75 -263.93,-345.68 -258.71,-659.8l-92.73 -2.63c-10.31,243.43 32.19,478.76 162.23,617.59 42.41,45.25 131.89,135.73 208.61,160.39 114.98,36.98 235.02,-16.03 237.9,120.36l0 -0z"/>
  <path class="fil6" d="M4355.2 4649.57l14.67 78.29c180.71,6.35 477.63,-85.97 647.59,-144.39 164.61,-56.6 456.07,-138.93 544.61,-259.96 -438.76,150.7 -706,259.46 -1206.87,326.07l0 0z"/>
  <path class="fil5" d="M432 3560.97c144.23,63.23 179.36,94.01 358.44,134.2 120.74,0.62 117.02,17.75 142.23,-74.8 -133.98,-53.23 -218.99,25.25 -341.16,-79.82 -121.91,-24.56 -173.82,-84.54 -251.93,-173.58 -91.69,-104.57 -82.26,-191.64 -143.95,-296.77 -6.78,247.22 120.94,395.66 236.37,490.76l-0.01 0z"/>
  <path class="fil7" d="M5559.21 4255.69c-198.96,153.32 -893.58,296.43 -1200.6,356.85l-166.76 39.81c4.47,1.81 10.97,5.1 13.41,5.57 2.5,0.47 11,3.9 14.28,4.27l135.66 -12.62c500.86,-66.6 768.11,-175.36 1206.87,-326.07 88.67,-37.94 121.54,-31.62 147.42,-109.98l-150.27 42.16 0 -0z"/>
  <path class="fil8" d="M5595.46 2164.97c49.87,-69.76 61.91,-256.75 390.56,-264.12 315.46,-7.07 292.09,218.58 446.73,235.24 -12.69,-197.07 -247.08,-309.94 -472.85,-287.62 -185.89,18.35 -436.47,124.51 -364.44,316.5l-0.01 0.01z"/>
  <path class="fil6" d="M1909.04 2470.94l71.79 -134.26c-217.24,-14.72 -446.41,-160.77 -493.58,40.06 118.52,61.19 326.43,24.1 421.79,94.19z"/>
  <path class="fil9" d="M1980.83 2336.68l-71.78 134.26 -1.06 20c-24.01,302.04 135.01,431.82 373.6,285.44l14.28 -89.7c-59,103.51 2.97,55.04 -95.69,84.98 -93.79,99.76 -320.72,-72.47 -213.3,-283.21l5.31 -25.91 51.44 -94.48c57.73,-101.7 66.56,-54.22 146.24,-115.57 -99.16,-71.1 -168.77,-1.88 -209.02,84.2l-0.02 0z"/>
  <path class="fil10" d="M5039.38 2955.7l-66.38 -14.28c-36.57,-118.7 -148.82,-314.27 22.57,-376.56 32.69,-89.35 18.79,-31.28 -14.88,-72.66l-129.51 90.98c-98.66,592.99 556.21,538.04 374.06,94.94l1.71 234.78c-63.07,37.5 -109.42,76.64 -187.58,42.82l0 -0.01z"/>
  <path class="fil7" d="M3983.04 4100.4c-51.53,282.24 47.39,281.87 93.66,417.72 210.4,33.22 301.21,-10.37 297.62,-242.05l-36.12 5.91 -15.65 129.36c-176.84,238.09 -330.56,-117.95 -286.71,-240.02 60.97,-77.88 83.72,-44.63 90.57,-145.41 -45.69,6.47 -52.69,7.87 -86.88,28.59l-56.48 45.91 0 -0.01z"/>
  <path class="fil11" d="M4742.17 3275.57l47.35 -52.7c-25.12,-26.04 45.19,-29.88 -83.41,-27.16 -140.26,56.01 -96.57,487.64 115.82,519.49 217.37,-23.44 261.81,-120.14 195.12,-320.03 -3.94,82.29 17.88,171.84 -33.28,229.25 -167.51,188.18 -423.91,-189.29 -241.59,-348.84l0 -0.01z"/>
  <path class="fil7" d="M2525.16 4696.52l74.67 17.04c56.09,-66.47 109.82,-86.63 124.1,-182.92 -198.02,259.67 -302.31,80.22 -296.28,-36.41 7.28,-140.23 74.48,-156.36 75.25,-157.08 26.41,-91.44 62.66,-100.72 147.33,-140.23 -52.98,-44.69 -11.1,-20.97 -77.48,-40.72 -159.17,61.03 -215.17,259.49 -187.23,456.16 89.38,61.94 29.56,42.19 139.64,84.17l0 0z"/>
  <path class="fil12" d="M3110.33 3346.96l12.07 -94.41c-24.34,68 -2.37,38.22 -42.22,91.85 -19.87,62.63 -19.34,91.89 -81.04,122.92 -30.13,15.16 -30.5,21.47 -74.07,10.87 -78.67,-19.19 -50.26,-32.72 -63.29,-45.03 -50.13,-68.07 -54.22,-70.85 -26.48,-186.39 26.31,-109.51 36.85,-135.48 112.14,-175.18 48.19,-51.6 28.07,-22.91 59.53,-92.33 -313.03,25.13 -313.09,610.65 -37.31,537.89 99.69,-63.97 110.01,-107.45 140.67,-170.21l0 0.01z"/>
  <path class="fil13" d="M3662.3 2887.47c-54.88,171.51 -23.41,201.18 17.91,362.5 110.35,139.02 142.86,148.67 303.41,65.88l-3.82 -229.96 -11.47 164.73c-234.84,201.27 -342.66,-202.99 -233.05,-313.78 20.56,-29.53 28.41,-43.35 45.47,-77.14 -65.23,-5.91 -75.07,4.75 -118.44,27.75l-0.01 0z"/>
  <path class="fil14" d="M2665.64 2489.98c-220.99,438.1 131.7,636.59 283.46,384.59 -30.13,18.84 -66.14,49.5 -93.44,57.63 -137.93,41 -125.02,-23.41 -125.76,-24.03 -196.42,-91.88 -36.78,-363.28 17.25,-407.26l109.44 -61.1c-94.28,-76.26 -136.94,-4.91 -190.96,50.16l0 0z"/>
  <path class="fil14" d="M4441.28 2317.43c33.22,95.85 98.04,333.99 303.72,220.87 91.44,-50.31 20.74,-7.5 51.31,-54.85 -75.85,23.03 -94.79,35.57 -186.08,24.47 -74.91,-64.26 -80.1,-83.45 -119.98,-201.33 22.5,-261.11 66.8,-119.04 110.88,-264.65 -161.67,7 -178.92,104.89 -159.86,275.5z"/>
  <path class="fil14" d="M4900.9 4281.63c-157.08,53.54 -216.3,61.89 -276.3,-93.88 -56.1,-145.54 -42.26,-199.64 48.1,-275.86l30.44 -72.7c-182.77,18.04 -199.55,167.51 -135.48,351.25 42.57,122.11 122.79,212.47 265.19,155.89 107.85,-42.84 49.63,-34.18 68.07,-64.7l-0.01 -0z"/>
  <path class="fil15" d="M1999.95 3650.45c-22.9,94.88 -36.59,136.76 -117.48,154.86 -130.63,132.98 -398.85,-261.21 -4,-450.63 -190.83,-188.67 -475.48,554.51 6.31,496.77 55.76,-43.09 119.3,-107.01 115.17,-200.98l-0.01 -0.01z"/>
  <path class="fil13" d="M2581.26 3600.58l16.87 -61.04c-165.52,-77.07 -245.48,215.99 -229.18,398.45 86.04,117.04 244.28,215.55 340.84,28.6 -118.76,89.57 -158.39,92.38 -290.46,-22.1 -11.63,-164.33 27.59,-319.84 161.92,-343.91l0 0z"/>
  <path class="fil7" d="M5292.88 4012.74c-73.19,-70.25 -128.17,-271.4 -20.21,-340.37 43.94,-62.73 1.24,12.71 40.1,-82.41 -149.92,24.25 -176.62,105.17 -147.38,266.81 52.9,292.81 202.33,248.95 301.93,239.74 42.09,-59.35 54.03,-59.47 74.01,-142.67 -5.06,5.59 -11.28,13.16 -14.63,17.22l-39.79 49.6c-71.2,73.7 -136.73,71.35 -194.02,-7.9l0 -0.01z"/>
  <path class="fil14" d="M2494.37 3328.98c-91.98,97.44 -39.44,76.97 -217.3,77.88 -158.3,-174.54 -93.44,-330.19 80.82,-450.48l31.63 -23.98c-13.63,-8.69 -83.11,-104.98 -188.05,79.85 -219.9,387.38 189.61,574.4 292.91,316.72z"/>
  <path class="fil13" d="M2127.43 4336.2l-29.38 41.63c-59.62,182.61 -338.21,109.11 -267.39,-176.95 36.28,-146.61 67.57,-132.32 125.23,-165.86l46.04 -30.98c2.87,-2.21 8.53,-8.75 12.69,-13.22 -168.64,-116.19 -273.18,223.67 -235.27,396.92 147.51,231.64 405.41,65.04 348.09,-51.53l-0 -0.01z"/>
  <path class="fil8" d="M4577.21 3178.18l-47.22 -0.93 -122.35 14.7c-56.5,-61.8 -72.03,-66.6 -85.79,-173.42 -3.03,-5.22 -67.63,-65.32 -13.47,-175.54 35.22,-71.7 49.1,-32.13 100.36,-131.23 -138.86,24.12 -188.71,80.88 -170.08,245.86 20.69,183.23 99.81,306.62 266.68,270.59 76.2,-16.47 71.82,-49.91 71.88,-50l-0 -0.03z"/>
  <path class="fil8" d="M3742.87 2514.91c26.22,84.09 57.73,253.55 206.27,263.93 140.76,9.84 136.76,-61.1 150.14,-75.69 -108.7,39.1 -108.72,39.88 -216.77,23.85l-23.01 -65.45 -16.94 -39.32 -49.5 -142.36c19.21,-171.92 47.41,-73.6 120.26,-224.17 -164.26,34.13 -175.14,81.73 -170.45,259.21l0 0z"/>
  <path class="fil7" d="M4343.82 3782.53c-167.36,57.01 -229.27,63.73 -287.72,-112.32 -84.07,-253.12 62.89,-202.9 87.67,-324.25 -281.87,-13.44 -145.98,449.38 -19.16,510.27 5.66,2.72 161.3,40.23 219.21,-73.7z"/>
  <path class="fil6" d="M2200.17 2771.65l-97.98 -26.13 10.32 -233.55 -125.64 -23.54c-107.41,210.74 119.52,382.97 213.3,283.21l0 0.01z"/>
  <path class="fil5" d="M1645.8 1552.1c-10.25,-88.7 -12.16,-80.04 -97.42,-109.99 -64.23,-22.57 -122.48,-45.82 -167.33,-66.13 -15.97,-132.3 -1.88,-151.36 68.66,-241.65 -53.1,27.54 -21.71,-2.03 -72.7,47.76 -229.43,223.95 80.33,328.93 268.78,370l0 0z"/>
  <path class="fil14" d="M1403.88 4204.19c-379.48,47.19 -185.27,-347 -94.95,-417.79 110.45,-86.57 -47.44,47.39 32.72,-20.47 42.66,-36.12 5.26,6.87 39.13,-45.47 -227.09,-37.85 -366.72,451.19 -117.16,521.58 147.24,41.54 139.6,-36.97 140.26,-37.85l-0.01 0z"/>
  <path class="fil11" d="M1990.58 4679.32l-201.38 -63.56c-153.54,-36.12 -522.65,-155.2 -616.66,-235.49l-131.44 -32.54c36.5,54.35 10.72,40.54 89.57,81.01l343.65 132.33c135.02,43.13 375.01,126.98 516.27,118.26l-0.01 0.01z"/>
  <path class="fil16" d="M6586.19 3165.87c-68.04,48.36 -38.38,41 -80.7,101.85 -74.6,107.23 -157.86,160.11 -279.19,221.71 287.19,-65.66 362.5,-144.86 465.14,-399.82 -6.34,4.71 -13.81,11.59 -18.28,15.06l-86.98 61.19 0 0.01z"/>
  <path class="fil14" d="M1539.04 3140.97c-40.32,-107.76 -47.19,-146.54 -1.79,-266.28 56.06,-147.86 88.79,-93.91 176.49,-180.42 -0.4,-0.22 -27.66,-84.82 -138.33,6.81 -31.56,26.13 -63.95,83.33 -80.97,133.4 -16.34,47.93 -30.7,125.1 -28.44,176.55 6.94,159.76 66.47,128.13 73.04,129.94l-0.01 0z"/>
  <path class="fil17" d="M5877.83 3590.64c54.56,10.63 51.31,8.6 86.67,28.95l85.88 -21.75c38.66,-21.51 33.6,-23.6 73.28,-53.32 67.17,-50.32 -0.44,-16.63 102.63,-55.07 -156.77,40.26 -287.43,80.86 -365.6,-72.79l-61.1 20.87 78.23 153.12 0.01 -0z"/>
  <path class="fil18" d="M5360.95 3398.39c-55.66,-27.41 -1.15,35.88 -62.38,-42.84 -12.82,-16.51 -33.69,-66.47 -39.79,-91.67 -20.82,-85.76 0.71,-152.7 13,-225.49 -109.57,92.98 -141.67,467.45 239.75,422.81 -48.35,-27.35 -104.92,-16.85 -150.58,-62.82l0 0z"/>
  <path class="fil14" d="M2542.25 4788.43l74.29 -10.84 -102.74 -30.22 -523.23 -68.04c97.11,71.44 405.32,101.01 551.68,109.11l0 0z"/>
  <path class="fil19" d="M2729.9 2908.16c-2.69,-6.12 -7.56,-21.84 -8.79,-18.04l-24.19 -54.42c-30.44,-103.07 3.25,-159.05 27.63,-259.99l126.04 -28.69 -103.45 -46.12c-54.04,43.97 -213.67,315.37 -17.25,407.26l0.01 0z"/>
  <path class="fil20" d="M4796.31 2483.45l-4.06 -49.23c-153.01,77.63 -216.05,-0.5 -235.75,-131.64l-66.25 4c39.88,117.88 45.07,137.07 119.98,201.33 91.28,11.1 110.22,-1.44 186.08,-24.47l0 0.01z"/>
  <path class="fil21" d="M1123.5 3617.39l47.66 5c19.63,-170.67 -111.72,-9.91 -82.67,-307.28l-0.06 -29.69c-20.82,22.28 -3.03,-52.94 -38.6,55.73 -13.71,41.95 -16.28,74.57 -11.16,117.91 9.19,77.72 54.91,115.83 84.82,158.32l0 0z"/>
  <path class="fil6" d="M279.33 2973.3l44.25 -349.94c-112.1,20.51 -112.54,284.74 -44.25,349.94z"/>
  <path class="fil22" d="M1992.18 2462.54c148.86,1.44 183.52,9.91 296.96,-53.01l-245.52 -41.47 -51.44 94.48 0 -0z"/>
  <path class="fil2" d="M2861.78 3433.15c13.04,12.31 -15.37,25.84 63.29,45.03 43.57,10.59 43.94,4.29 74.07,-10.87 61.69,-31.04 61.16,-60.3 81.04,-122.92l-81.35 -16.69c-66.98,112.6 -44.63,97.04 -137.05,105.45z"/>
  <path class="fil23" d="M6511.93 3060.52c71.29,-58.76 122.64,-206.51 56.37,-303.81 -47.41,48.16 -21.35,99.36 -56.37,303.81z"/>
  <path class="fil24" d="M2310.73 1128.63c117.42,-30.19 137.7,11.59 245.46,13.97 -25.12,-56.26 -3.65,-84.98 -112.67,-81.5 -74.48,2.37 -96.79,22.13 -132.8,67.53l0 0z"/>
  <path class="fil25" d="M4577.21 3178.18c123.13,-58.97 94.67,-166.32 42.47,-262.5 -1.78,61.57 10.94,78.32 5.4,120.32l-41.22 116.54c-2.16,6.54 -4.75,17.04 -6.67,25.62l0.01 0.01z"/>
  <path class="fil12" d="M3769.59 1341.5c-176.49,-148.44 -26.57,-71.63 -138.39,-126.6 -50.95,106.83 35.98,123.17 138.39,126.6z"/>
  <path class="fil13" d="M5271.78 3038.4l39.66 15.65c70.5,-102.85 93.17,-19.25 105.66,-134.46 -92,32.69 -106.08,21.51 -145.32,118.79l0 0.01z"/>
  <path class="fil26" d="M4099.27 2703.15c-100.14,-28.75 -79.73,25.56 -239.77,-41.6l23.01 65.44c108.03,16.04 108.07,15.25 216.77,-23.84l-0.01 0z"/>
  <path class="fil14" d="M4107.05 2648.96l-19.19 58.6c22.66,-15.16 108.82,31.56 63.88,-219.68l-44.69 161.08 0 0z"/>
  <path class="fil3" d="M3202.62 1686.65c210.9,38.53 144.08,-1.66 170.21,-24.34 -3.09,-1.41 -44.14,-74.14 -170.21,24.34z"/>
  <path class="fil27" d="M2640.07 1515.6l152.67 4.75c0.82,-48.13 10.32,-35.94 -1.84,-64.13 -27.88,-64.66 5.97,-12.82 -39.13,-53.63 -46.03,99.85 7.22,69.54 -111.7,113.02l0.01 0z"/>
  <path class="fil12" d="M1256.86 2479.28c87.32,-20.65 131.73,-50.66 98.7,-135.86 -78.6,41.19 -62.07,61.57 -98.7,135.86z"/>
  <path class="fil14" d="M4796.71 2435.49l-4.47 -1.28 4.06 49.23c11.19,-7.38 38,32.34 55.79,-79.44 7.44,-46.69 -4.31,-87.51 -11.47,-133.05l-43.9 164.54 0 -0.01z"/>
  <path class="fil28" d="M4341.57 3748.09l2.25 34.44c42.09,-28.88 14.54,30.28 45.16,-40.85 12.78,-29.69 13.19,-36.63 13.62,-69.04 1.15,-84.11 -10.84,-85.01 -47.88,-118.35 26.44,83.85 23.87,119.54 -13.16,193.8l0.01 0z"/>
  <path class="fil13" d="M4900.9 4281.63c21.31,-9.69 41,24.22 58.26,-77.88 7.59,-44.76 -5.79,-89.2 -22.57,-134.27l-35.68 212.14 0 0.01z"/>
  <polygon class="fil15" points="5476.77,2182.41 5511.18,2004.52 5441.8,1986.93 "/>
  <path class="fil29" d="M4052.36 1077.01c113.33,-0.5 68.13,18.7 124.2,-49.76 -71.29,-42.19 -76.04,-3.25 -124.2,49.76z"/>
  <path class="fil29" d="M5592.99 2374.63l-117.63 -35.75c40.06,54.73 -21.07,27.06 47.69,52.44 110.01,40.63 67.51,-15.25 69.94,-16.69z"/>
  <polygon class="fil16" points="3842.56,2622.23 3836.28,2509.07 3793.05,2479.88 "/>
  <path class="fil30" d="M1403.88 4204.19c50.26,12.53 39.66,24.34 39.66,-24.81l13.37 -56.92 -16.56 -3.37c-25.44,69.7 5.68,11.25 -36.47,85.1l0 0.01z"/>
  <path class="fil31" d="M1099.94 3237.86l-11.51 47.57c56.01,-43.44 8.31,69.26 53.01,-61.94 -21.75,-6.94 4,-19.51 -41.51,14.37z"/>
  <path class="fil32" d="M4338.19 4281.98l36.12 -5.91 -33.07 -46.79c-0.72,1.06 -54.78,-41.5 -3.07,52.7l0.01 0z"/>
  <path class="fil30" d="M1539.04 3140.97c31.75,39.79 -33.78,7.53 42,42.35 48.54,22.28 24.47,7.94 64.79,13.66l-106.79 -56.01 0 0z"/>
 </g>
</svg>
